<?xml version="1.0" standalone="no"?>
<!DOCTYPE svg PUBLIC "-//W3C//DTD SVG 20010904//EN"
 "http://www.w3.org/TR/2001/REC-SVG-20010904/DTD/svg10.dtd">
<svg version="1.0" xmlns="http://www.w3.org/2000/svg"
 width="1024.000000pt" height="752.000000pt" viewBox="0 0 1024.000000 752.000000"
 preserveAspectRatio="xMidYMid meet">
<metadata>
Created by potrace 1.16, written by Peter Selinger 2001-2019
</metadata>
<g transform="translate(0.000000,752.000000) scale(0.100000,-0.100000)"
fill="#000000" stroke="none">
<path d="M0 7095 l0 -425 69 0 68 0 -3 48 c-2 26 -8 171 -14 322 -6 151 -13
321 -16 378 l-7 102 -48 0 -49 0 0 -425z"/>
<path d="M244 7328 c4 -106 11 -276 16 -378 5 -102 14 -300 20 -440 6 -140 17
-390 25 -555 8 -165 16 -358 19 -429 3 -71 8 -131 11 -134 3 -3 23 1 44 8 31
10 41 19 46 41 4 16 4 32 2 36 -3 5 -8 56 -11 113 -4 58 -9 137 -11 175 -23
295 -40 737 -29 709 3 -8 26 -10 64 -8 l59 4 10 -37 c6 -21 13 -99 16 -173 3
-74 7 -169 10 -210 10 -149 19 -366 18 -410 -1 -25 -3 -84 -6 -133 -4 -87 -4
-87 22 -94 33 -8 70 -8 151 1 47 6 61 5 50 -3 -13 -9 -13 -11 1 -11 9 0 19 -6
22 -13 5 -14 -21 -27 -98 -47 -27 -7 -58 -15 -69 -18 -15 -4 -17 -1 -11 17 8
25 3 26 -35 6 -16 -8 -33 -14 -37 -13 -4 1 -25 -4 -46 -11 -21 -7 -41 -10 -44
-7 -4 3 0 6 9 6 8 0 25 12 39 26 l24 27 -75 -5 c-61 -4 -86 -12 -135 -38 -33
-19 -66 -40 -73 -47 -16 -16 -121 -47 -130 -39 -3 4 17 27 44 52 27 26 48 50
47 55 -10 33 -19 405 -11 410 7 4 6 8 -1 10 -9 3 -39 437 -46 674 0 28 -2 76
-3 108 l-2 57 -70 0 -70 0 0 -3305 0 -3305 643 2 642 3 8 70 c17 147 9 135 80
136 34 1 76 5 92 9 26 7 22 8 -22 9 -63 1 -72 21 -10 22 37 0 39 1 18 10 -38
15 -107 1 -119 -24 -9 -19 -11 -17 -11 17 -1 43 38 388 44 395 3 2 46 5 97 8
51 2 219 10 373 18 154 8 343 17 420 21 77 3 147 10 155 15 8 4 -59 5 -150 2
-91 -3 -246 -6 -345 -8 -99 -1 -263 -5 -364 -10 -165 -7 -184 -6 -178 7 13 36
-9 22 -78 -47 -117 -119 -260 -200 -462 -261 -48 -14 -105 -35 -126 -46 -22
-11 -45 -17 -53 -14 -9 3 -12 1 -9 -4 3 -6 0 -10 -8 -10 -31 0 -26 30 11 61
21 18 28 28 17 24 -11 -4 -29 -10 -40 -13 -19 -5 -19 -4 1 19 16 19 20 30 14
52 -10 34 18 57 71 57 20 0 47 8 60 18 13 10 36 24 51 31 33 17 74 59 65 67
-3 4 -29 -5 -58 -20 -29 -14 -74 -29 -101 -32 -56 -8 -68 -19 -42 -40 17 -13
14 -14 -31 -12 -27 2 -50 8 -51 13 0 6 -6 24 -13 40 -6 17 -14 36 -16 43 -2 6
-9 12 -14 12 -6 0 -13 16 -17 36 -3 19 -15 41 -25 47 -23 14 -26 82 -6 94 8 4
28 38 46 75 18 37 37 70 42 73 5 4 9 12 9 20 0 10 -9 9 -40 -6 -45 -22 -61
-24 -78 -7 -9 9 -12 8 -12 -5 0 -10 -8 -17 -19 -17 -15 0 -19 5 -15 22 3 13 6
29 6 36 2 18 16 15 21 -5 4 -14 5 -13 6 4 1 15 9 25 27 29 14 4 36 16 48 28
12 11 65 55 118 96 53 41 90 76 82 78 -22 6 -97 -25 -152 -62 -66 -44 -121
-61 -140 -43 -10 11 -9 17 6 35 11 12 27 22 36 22 10 0 14 5 11 10 -4 6 5 10
20 10 14 0 24 4 21 9 -4 5 3 7 14 4 11 -3 20 -1 20 5 0 5 11 13 25 16 35 9 32
30 -2 22 -75 -16 -173 -29 -179 -23 -4 3 -7 26 -8 49 -1 24 -5 49 -9 55 -9 15
42 43 76 43 51 0 218 68 284 116 21 15 23 15 23 -1 0 -10 -8 -24 -18 -32 -15
-11 -13 -12 11 -1 25 10 30 10 38 -5 6 -9 35 -46 65 -81 29 -36 54 -71 54 -78
0 -7 -28 -38 -61 -68 -83 -72 -142 -155 -178 -250 -29 -75 -40 -140 -23 -140
4 0 12 10 18 23 23 48 97 183 109 197 6 8 21 35 33 60 12 25 46 69 76 99 l54
53 28 -38 c16 -21 48 -58 70 -81 48 -50 61 -51 194 -28 47 8 98 15 114 15 l29
0 -7 -113 c-4 -61 -9 -134 -13 -161 l-6 -48 69 5 c38 4 70 7 70 7 1 0 -1 11
-3 24 -6 30 24 187 38 201 7 7 9 -30 7 -108 l-3 -117 81 0 c57 0 85 4 93 14 6
7 14 57 18 109 3 53 10 94 14 91 5 -3 6 -31 3 -63 -4 -33 -2 -66 3 -76 8 -14
12 1 17 61 9 104 16 135 27 128 5 -3 12 2 15 11 5 12 9 13 20 4 11 -9 14 -7
14 10 0 35 20 13 21 -22 0 -32 0 -32 11 -7 10 24 10 24 18 5 5 -11 9 -67 10
-125 1 -79 4 -98 11 -75 4 16 9 59 10 95 1 36 6 76 10 90 4 14 7 -25 6 -93 -2
-132 6 -128 21 10 6 51 14 97 17 103 13 21 25 -2 26 -48 1 -96 16 -87 23 13 7
100 18 137 29 93 3 -13 9 -81 13 -153 3 -71 8 -132 10 -134 3 -4 8 115 7 157
-1 6 3 12 8 12 5 0 9 9 9 20 0 11 5 20 10 20 6 0 10 15 11 33 0 17 4 41 8 51
14 35 23 -1 29 -112 3 -66 8 -99 13 -87 4 11 5 48 2 82 -4 48 -2 65 10 77 14
15 16 14 20 -11 4 -25 4 -24 6 7 2 34 3 34 13 10 l11 -25 6 25 c5 18 11 0 23
-70 l17 -95 -5 120 c-4 79 -2 115 4 106 8 -11 11 -9 14 10 2 13 13 -22 23 -78
11 -57 23 -103 28 -103 4 0 5 10 2 23 -28 124 -30 141 -15 132 6 -3 10 -17 10
-31 0 -14 4 -23 9 -19 9 5 12 -14 24 -130 3 -32 10 -22 22 28 4 21 9 26 18 19
9 -8 11 1 9 39 -2 27 -8 46 -13 43 -5 -3 -9 4 -9 16 0 12 5 18 10 15 6 -4 10
9 10 31 0 21 2 35 4 33 8 -8 37 -329 31 -339 -3 -5 1 -10 10 -10 15 0 16 16
13 143 -3 78 -1 156 3 172 7 26 8 25 5 -10 -2 -22 3 -78 10 -125 8 -47 14
-106 14 -132 l0 -48 34 3 c30 2 33 4 25 24 -11 28 -16 229 -6 239 13 14 16 -2
25 -136 l9 -135 3 125 c2 140 15 129 26 -22 3 -49 10 -88 15 -88 8 0 4 184 -7
264 -3 23 0 44 8 53 6 8 11 31 10 51 -1 35 0 34 13 -13 8 -27 20 -119 27 -202
l12 -153 103 0 c57 0 103 4 103 9 0 5 -8 8 -17 7 -15 -1 -18 8 -19 54 0 30 -4
81 -8 113 -5 35 -4 57 2 57 16 0 22 -27 22 -91 0 -33 4 -59 10 -59 16 0 9 163
-14 325 -3 22 -3 31 0 20 11 -38 24 -40 25 -5 l1 35 14 -40 c14 -38 14 -39 9
-6 -3 18 -5 61 -6 95 0 47 -2 56 -9 39 -5 -13 -12 -23 -16 -23 -3 0 -4 6 -1
14 7 18 -17 28 -32 13 -8 -8 -11 4 -11 45 l0 56 69 16 c39 9 73 16 77 16 8 0
-5 -170 -14 -185 -3 -5 -12 17 -18 50 -12 59 -12 57 -9 -55 2 -63 8 -133 13
-155 l11 -40 -2 48 c-3 60 10 61 19 2 3 -25 10 -45 15 -45 8 0 15 -44 23 -145
3 -33 8 -79 12 -103 4 -28 3 -42 -5 -43 -6 -1 -15 -3 -21 -4 -5 -1 -31 -4 -57
-5 -43 -3 -44 -4 -13 -7 19 -3 40 -9 45 -14 7 -7 -23 -9 -85 -8 -52 1 -156 -1
-230 -5 -74 -3 -204 -8 -289 -11 -84 -2 -156 -7 -160 -11 -3 -3 116 -3 264 1
372 10 631 21 565 24 -54 3 -55 3 -20 13 19 5 45 9 58 9 12 -1 22 4 22 9 0 5
-6 7 -13 4 -11 -4 -15 19 -20 109 -3 63 -4 132 -2 153 5 38 5 38 -5 9 -7 -19
-8 -75 -4 -147 9 -173 -11 -149 -25 29 -7 82 -16 181 -22 221 -5 40 -9 127 -9
192 0 107 2 120 18 121 9 0 12 3 6 5 -7 3 -42 -2 -79 -11 -36 -8 -82 -15 -101
-15 -33 0 -34 -1 -34 -39 0 -72 -15 -80 -20 -11 -4 57 -8 65 -25 65 -11 0 -24
7 -30 15 -7 11 -13 -7 -21 -65 l-11 -80 -2 92 -1 92 173 86 c94 47 182 94 194
104 21 18 27 37 23 76 l-1 20 -9 -20 c-5 -11 -9 -15 -9 -8 -1 7 -30 -2 -75
-23 -86 -39 -96 -41 -96 -16 0 27 29 50 91 71 29 11 55 24 57 29 5 16 -15 23
-40 13 -15 -6 -31 -5 -41 1 -14 7 -28 0 -68 -36 -27 -24 -66 -50 -87 -58 -21
-7 -75 -35 -119 -63 -62 -38 -84 -57 -88 -77 -8 -33 -82 -85 -134 -94 -70 -12
-109 -24 -121 -39 -7 -8 -28 -15 -47 -15 -18 0 -50 -8 -71 -19 -39 -19 -230
-69 -296 -77 -22 -3 -47 -9 -56 -14 -30 -16 -208 -40 -297 -40 -138 0 -297 55
-309 107 -4 16 -12 35 -18 43 -23 29 -37 70 -24 70 9 0 9 3 0 12 -7 7 -12 18
-12 26 0 12 3 12 15 2 8 -7 15 -19 15 -26 0 -7 11 -21 24 -29 26 -18 136 -19
214 -3 40 9 42 11 43 46 0 20 6 73 13 117 10 71 13 77 20 50 5 -16 10 -69 11
-117 1 -49 4 -91 8 -94 3 -3 19 -3 36 1 26 6 31 11 32 38 1 18 5 43 10 57 6
17 7 6 3 -33 l-6 -58 38 3 37 3 24 110 c25 112 43 154 43 100 0 -17 -4 -46 -9
-65 -12 -48 -22 -159 -12 -140 4 8 14 48 21 89 7 41 16 68 20 61 4 -6 7 7 7
30 0 70 41 80 44 10 1 -27 4 -22 13 23 4 18 13 27 26 27 16 0 19 -5 15 -22
-10 -49 -25 -143 -25 -162 0 -37 9 -11 20 59 16 100 34 111 26 15 -4 -41 -10
-85 -13 -97 -4 -17 -1 -23 12 -23 9 0 14 3 12 8 -2 4 -1 30 4 57 l7 50 -1 -47
c-2 -77 10 -65 22 24 18 125 20 130 39 126 9 -2 16 -8 16 -14 -1 -5 -4 -47 -7
-94 -7 -98 7 -80 18 24 4 37 10 64 13 62 3 -3 11 -1 18 5 17 14 28 -43 22
-117 -3 -37 -1 -53 6 -49 6 3 18 8 26 11 11 4 15 15 12 40 -3 21 0 34 7 34 6
0 11 -16 11 -35 0 -23 5 -35 14 -35 9 0 16 18 21 55 7 56 25 67 25 15 0 -16 5
-32 10 -35 6 -4 10 7 10 25 0 18 4 29 10 25 6 -3 10 -19 10 -34 0 -25 3 -28
25 -23 16 3 25 11 25 23 0 11 5 19 10 19 6 0 10 -7 10 -16 0 -11 5 -14 17 -9
10 4 37 14 61 22 23 8 42 18 42 21 0 4 -23 22 -50 41 -28 18 -50 36 -50 40 0
3 45 5 100 3 95 -3 101 -2 127 23 25 23 78 45 110 45 6 0 15 5 18 10 4 7 -2 9
-19 4 -33 -8 -33 1 4 77 16 34 28 65 25 68 -2 4 0 13 5 21 7 11 13 11 40 0 25
-11 35 -11 56 0 13 7 24 17 24 22 0 12 -73 58 -101 63 -13 3 -36 14 -50 24
-18 13 -30 16 -36 10 -15 -15 -68 -7 -68 10 0 24 -22 23 -29 -1 -4 -17 -8 -20
-15 -10 -7 11 -9 11 -14 -2 -4 -9 -13 -13 -22 -10 -20 8 -19 23 3 31 9 4 19 9
22 13 16 21 110 61 129 55 19 -6 21 -3 21 42 0 35 3 44 10 33 5 -8 10 -26 11
-40 0 -23 1 -23 9 -5 7 16 9 13 9 -17 1 -58 21 -45 23 15 l1 52 7 -50 c6 -45
7 -40 9 40 2 59 6 81 10 65 5 -16 8 7 8 60 0 106 1 111 18 174 l15 51 -6 -70
c-4 -50 -2 -66 5 -55 6 8 11 29 11 45 0 23 3 27 10 15 7 -11 9 -2 4 30 -4 32
-3 41 5 31 8 -12 11 -10 16 11 5 17 13 26 25 25 16 -1 19 -16 27 -122 9 -109
10 -114 13 -50 2 55 4 64 10 40 6 -23 8 -15 9 38 0 37 5 67 10 67 5 0 12 -24
17 -52 l8 -53 3 45 c2 25 6 56 10 70 l6 25 7 -25 c6 -19 8 -12 10 30 2 42 4
49 9 30 l8 -25 5 25 c3 14 4 -22 3 -80 l-4 -105 9 85 c5 47 12 100 15 118 5
25 2 32 -10 32 -25 0 -17 15 18 33 l32 16 -30 0 c-39 0 -144 -22 -172 -37 -55
-28 -64 -32 -83 -32 -11 0 -20 -4 -20 -9 0 -5 -24 13 -52 41 -62 60 -192 148
-219 148 -11 0 -19 3 -19 8 0 4 -12 8 -27 8 -16 1 -48 5 -73 8 l-45 6 40 -13
40 -14 -30 -7 c-109 -26 -105 -26 -105 -1 0 23 13 38 35 41 6 0 21 2 35 3 14
2 19 5 12 8 -7 3 -19 17 -27 33 -9 17 -25 30 -42 33 -15 2 -59 17 -97 31 -38
14 -74 25 -80 24 -11 -1 -76 10 -109 19 -16 4 -18 1 -12 -17 5 -17 4 -20 -5
-15 -9 6 -11 4 -6 -4 5 -7 10 -10 13 -7 3 3 10 0 17 -5 6 -6 29 -20 51 -33 50
-27 59 -61 18 -69 -20 -4 -33 -1 -44 13 -9 11 -20 16 -24 12 -3 -4 -11 1 -16
11 -6 9 -15 17 -22 17 -7 0 -24 6 -38 14 -14 7 -39 16 -55 20 -16 4 -37 15
-46 24 -10 9 -27 26 -38 37 -24 22 -21 71 7 138 20 46 48 55 104 33 23 -9 44
-15 46 -12 3 2 7 22 10 44 5 35 2 42 -19 56 -22 14 -175 54 -275 73 -18 3 -33
10 -33 14 0 5 -11 9 -25 9 -14 0 -29 8 -35 19 -14 27 -14 27 24 23 39 -5 41
-2 50 61 l7 47 -86 0 -86 0 -45 94 c-24 51 -44 98 -44 104 0 14 278 21 284 7
3 -5 5 -2 5 9 1 17 -7 18 -149 13 l-150 -5 -10 41 c-6 23 -18 61 -27 85 -10
25 -12 46 -7 52 5 4 440 12 967 16 l958 7 -7 -57 c-5 -39 -3 -56 5 -56 6 0 11
-4 11 -9 0 -4 -10 -7 -22 -4 -13 2 -88 -1 -168 -5 l-145 -9 195 -1 c107 0 247
3 310 7 63 4 129 5 145 1 42 -9 -146 -20 -369 -21 -100 -1 -248 -5 -331 -9
-147 -6 -148 -6 -45 -8 58 -1 100 -6 93 -10 -6 -4 160 -7 368 -7 l379 0 0 58
c0 32 7 81 16 108 13 40 19 47 30 38 17 -14 18 -5 2 20 -10 17 -6 26 32 68 24
26 56 54 72 61 35 15 75 6 89 -20 11 -20 12 -20 33 5 28 34 58 39 62 10 2 -12
-3 -23 -12 -27 -9 -4 -14 -13 -10 -21 3 -8 0 -14 -6 -12 -7 1 -13 -8 -14 -19
-2 -32 -12 -43 -35 -37 -18 5 -20 11 -16 41 6 34 6 34 -14 16 -21 -19 -18 -46
8 -76 14 -15 17 -15 49 4 28 16 40 18 57 10 12 -6 16 -11 10 -11 -8 -1 -13
-16 -13 -40 l0 -39 63 -11 c156 -28 267 -24 402 15 l51 14 -4 41 c-3 29 -1 40
7 35 6 -4 11 -3 11 3 0 5 -4 12 -9 16 -6 3 -6 18 -1 37 5 17 7 34 5 39 -8 12
37 125 94 238 51 101 106 249 96 259 -3 3 -5 1 -5 -5 0 -6 -9 -13 -19 -16 -21
-5 -34 20 -21 44 4 8 10 28 14 44 5 22 4 26 -4 15 -23 -34 2 194 29 264 8 18
9 54 5 95 -3 36 -1 125 5 196 10 107 9 155 -4 274 -8 79 -15 171 -14 205 1 93
23 131 27 48 4 -54 40 -112 117 -187 72 -70 73 -70 51 -87 -25 -18 -141 -186
-134 -193 11 -11 104 35 119 60 l17 26 6 -26 c14 -57 -34 -256 -70 -286 -15
-12 -69 -140 -79 -187 -4 -19 -3 -32 3 -32 5 0 9 7 8 16 0 9 4 19 11 21 8 3 9
-6 2 -34 -5 -21 -20 -121 -34 -221 -14 -101 -27 -187 -29 -191 -3 -4 -7 -41
-11 -82 -3 -41 -13 -143 -23 -227 -10 -83 -17 -154 -15 -156 6 -6 109 29 188
62 99 42 115 43 166 9 19 -12 67 -30 107 -40 78 -18 126 -43 115 -60 -3 -5 -2
-8 3 -4 13 8 47 -20 39 -32 -10 -17 -25 -13 -25 6 0 15 -1 15 -18 0 -23 -21
-36 -22 -29 -3 3 8 0 17 -8 19 -7 3 -15 -3 -18 -14 -7 -26 -26 -24 -36 4 -6
14 -5 27 3 36 9 12 8 13 -7 8 -10 -4 -28 -7 -40 -7 -21 -1 -21 -2 6 -25 15
-13 27 -28 26 -32 -4 -21 2 -33 12 -27 7 4 4 -7 -6 -24 -10 -17 -30 -34 -44
-37 -23 -6 -46 -22 -128 -92 -37 -31 -62 -42 -80 -36 -22 8 -14 42 13 59 19
13 22 19 12 25 -9 6 -4 9 14 9 14 0 39 11 55 24 15 12 39 29 52 36 22 11 23
14 8 25 -9 6 -13 16 -9 20 4 4 -4 5 -18 1 -14 -4 -32 -8 -40 -10 -27 -5 -50
-18 -50 -30 0 -6 -32 -29 -70 -51 -39 -22 -64 -41 -57 -43 8 -2 21 -36 31 -85
10 -45 25 -97 33 -114 l15 -33 469 0 c425 0 505 -4 454 -24 -8 -3 -180 -8
-383 -11 -499 -8 -522 -9 -494 -37 9 -9 123 -12 450 -12 l437 1 -325 -7 c-179
-4 -338 -8 -355 -9 l-29 -1 24 -17 c14 -10 29 -17 34 -15 5 2 4 -4 -4 -12 -11
-14 -9 -16 14 -16 14 0 26 -4 26 -10 0 -11 -74 -15 -220 -12 -52 1 -111 -2
-130 -7 -25 -7 16 -9 148 -9 101 0 186 -3 190 -6 3 -3 -8 -7 -24 -7 -25 -2
-26 -2 -5 -6 13 -3 26 -14 29 -25 5 -20 6 -20 18 -3 13 17 36 19 323 19 170 1
307 4 305 8 -2 3 -138 7 -301 7 -213 0 -300 4 -307 12 -8 9 -8 10 1 5 6 -3 15
-2 18 4 4 6 3 10 -2 9 -19 -3 -33 2 -33 12 0 7 -8 17 -17 24 -13 10 51 12 313
10 181 -1 371 -5 422 -10 81 -7 95 -5 112 10 11 10 17 22 14 26 -3 5 3 9 13
10 10 0 3 5 -14 10 -18 5 -33 16 -33 24 0 9 -10 16 -22 16 -19 1 -20 2 -4 6
15 4 17 12 13 45 -3 22 -8 42 -11 46 -4 3 -41 7 -82 9 l-76 3 6 -32 c4 -18 15
-49 26 -70 14 -27 16 -38 7 -42 -8 -3 -7 -9 6 -19 23 -19 21 -29 -5 -25 -14 2
-24 11 -26 23 -1 11 -7 43 -13 71 l-12 52 -205 1 c-112 0 -207 3 -210 6 -3 3
89 6 204 7 154 2 175 3 79 6 -71 1 -125 6 -118 10 6 4 -113 6 -265 5 -193 -1
-262 2 -227 8 28 5 246 11 485 14 239 3 450 7 468 10 23 4 32 11 32 25 0 11
-4 20 -10 20 -5 0 -10 5 -10 10 0 6 6 10 14 10 12 0 26 20 26 36 0 2 -87 5
-192 6 l-193 3 183 2 c168 3 203 9 170 29 -7 5 -3 11 13 18 20 9 8 12 -71 16
l-95 6 93 2 c85 2 92 3 92 22 0 28 -28 80 -42 80 -7 0 4 16 23 36 38 40 37 23
26 293 l-6 143 24 -22 c19 -18 25 -36 30 -99 4 -42 18 -109 31 -150 22 -67 23
-76 9 -91 -14 -15 -13 -19 4 -41 10 -13 20 -33 22 -44 4 -17 12 -20 59 -20
l55 0 -4 40 c-1 22 -12 61 -22 88 -10 26 -19 57 -19 68 0 11 -6 30 -14 42 -7
12 -19 51 -26 87 -6 36 -19 78 -28 95 -9 16 -17 32 -17 35 -1 3 -5 30 -9 60
-5 30 -12 60 -16 65 -5 6 -13 37 -19 70 -6 32 -16 64 -21 69 -6 6 -10 19 -11
30 -1 18 -2 17 -9 -4 -6 -19 -8 -9 -9 38 -1 58 -3 63 -21 57 -15 -5 -21 0 -26
20 -3 14 -4 37 -1 51 2 15 -4 61 -14 103 -10 42 -19 90 -19 108 0 17 -5 33
-11 35 -5 2 -13 24 -16 48 -3 25 -12 54 -19 65 -7 11 -15 36 -18 55 -3 19 -10
53 -15 75 -6 22 -11 60 -11 83 0 36 -6 49 -32 75 -18 17 -28 28 -21 24 8 -5 8
-1 0 18 -14 29 -37 41 -37 20 0 -17 -11 -19 -25 -6 -6 5 -55 33 -110 62 -55
28 -117 63 -139 76 l-38 25 6 191 c3 106 9 240 12 298 l6 106 -52 6 c-29 4
-54 8 -55 9 -2 2 2 24 8 50 l11 47 121 -1 c136 -1 155 -3 155 -24 0 -20 27
-29 45 -14 12 10 16 9 20 -4 3 -9 7 -23 10 -32 3 -10 11 -14 21 -10 9 4 22 1
30 -4 7 -6 23 -12 36 -14 13 -1 29 -6 36 -10 7 -4 12 -2 12 3 0 15 63 14 78
-1 10 -10 17 -10 32 0 23 14 60 16 60 3 0 -5 17 -5 41 0 48 11 78 -3 58 -27
-9 -11 -8 -14 5 -14 11 0 16 9 17 28 1 27 1 33 -8 64 -5 15 -2 16 21 5 22 -10
26 -17 21 -37 -12 -53 -14 -90 -4 -90 17 0 7 -103 -10 -118 -14 -11 -14 -14 7
-29 20 -14 21 -17 5 -28 -15 -11 -15 -14 3 -32 10 -11 29 -26 42 -32 12 -6 22
-18 22 -26 0 -16 -16 -20 -24 -7 -3 5 -19 7 -36 4 -18 -2 -30 0 -30 7 0 6 6
11 13 11 8 0 7 4 -3 10 -8 5 -11 10 -5 10 5 0 4 5 -2 11 -12 12 -63 2 -63 -13
0 -5 3 -7 8 -5 4 3 16 1 27 -4 15 -6 8 -8 -25 -8 -67 0 -107 -5 -116 -13 -13
-14 -24 -9 -24 11 0 16 6 19 34 17 45 -4 60 6 51 33 -5 18 -10 20 -21 10 -7
-6 -21 -9 -29 -5 -8 3 -15 1 -15 -5 0 -6 -7 -9 -15 -5 -8 3 -28 0 -43 -6 -15
-6 -29 -12 -32 -12 -17 -4 -30 -20 -30 -38 0 -30 -14 -13 -15 17 0 31 -20 33
-21 2 0 -12 -1 -33 -3 -47 -2 -24 -2 -24 -16 -6 -8 11 -15 14 -15 8 0 -7 -3
-11 -7 -11 -19 3 -22 -3 -11 -28 6 -16 16 -44 23 -63 9 -23 20 -35 32 -35 12
0 19 -9 21 -27 2 -16 -1 -28 -7 -28 -14 0 -14 -37 -1 -45 6 -3 10 -24 10 -45
0 -43 21 -63 73 -66 89 -6 177 -17 177 -22 -1 -21 -24 -28 -102 -31 -58 -2
-88 1 -88 8 0 6 -4 11 -10 11 -16 0 -12 -37 9 -88 11 -26 22 -64 26 -85 3 -21
15 -47 26 -58 10 -10 19 -28 19 -38 0 -11 6 -22 13 -24 10 -4 10 -6 0 -6 -16
-1 -17 -32 -1 -66 8 -17 17 -24 29 -20 20 7 33 -22 23 -49 -5 -14 -9 -15 -15
-4 -12 19 -11 -4 5 -77 10 -49 16 -59 31 -57 16 3 17 -2 12 -56 -3 -40 -1 -67
8 -79 6 -10 15 -29 18 -43 10 -46 48 -184 71 -260 13 -41 31 -102 41 -135 9
-33 21 -69 25 -80 5 -11 11 -29 13 -40 18 -74 71 -242 78 -249 5 -6 9 -22 9
-38 0 -15 5 -39 12 -53 11 -24 15 -25 92 -26 45 0 91 -2 102 -3 31 -4 75 -42
125 -110 24 -33 88 -111 142 -174 53 -63 97 -120 97 -126 0 -6 -7 -3 -14 7 -9
11 -17 14 -20 8 -4 -6 -14 -8 -24 -5 -14 5 -14 4 -3 -4 8 -6 20 -8 27 -5 6 2
15 -1 19 -6 3 -6 10 -9 14 -7 7 5 171 -167 173 -181 0 -4 5 -19 10 -33 l9 -25
-23 23 c-15 13 -37 22 -57 22 l-33 0 29 -40 c17 -22 53 -66 83 -100 46 -52 56
-59 79 -54 14 4 31 11 36 16 6 6 4 7 -7 3 -11 -4 -18 -2 -18 4 0 6 5 11 12 11
7 0 4 7 -6 18 -9 9 -28 32 -41 51 -14 19 -25 31 -25 25 0 -5 -7 4 -15 20 -22
41 -19 46 25 46 44 0 141 18 152 29 4 4 10 81 13 171 3 91 8 172 11 182 3 10
-17 42 -53 85 -135 160 -284 334 -363 424 -73 83 -172 200 -245 288 -11 14
-29 34 -40 46 -11 12 -49 54 -85 95 -36 41 -69 80 -75 86 -5 6 -26 30 -45 54
-50 62 -103 124 -152 176 -23 24 -49 54 -57 65 -9 12 -39 48 -67 80 -49 56
-51 61 -47 106 3 27 6 53 8 60 3 9 108 12 412 12 224 0 435 0 468 -1 33 0 76
0 95 0 19 1 62 1 95 1 60 0 64 4 23 25 -12 6 -24 18 -26 26 -4 13 -2 12 14 -1
10 -9 30 -19 44 -21 14 -3 33 -9 43 -13 13 -6 17 -2 17 17 0 13 5 29 11 35 8
8 1 18 -26 36 -35 24 -40 24 -60 11 -16 -10 -25 -12 -30 -5 -3 6 -15 16 -26
21 -18 10 -19 9 -13 -14 4 -18 2 -26 -7 -26 -7 0 -21 -8 -31 -17 -14 -13 -21
-14 -30 -5 -9 9 -6 19 12 44 18 25 20 30 6 25 -10 -4 -22 -7 -28 -7 -6 0 -8
-9 -5 -20 7 -27 0 -25 -34 11 -16 17 -33 28 -39 24 -15 -9 -89 46 -153 115
-45 49 -55 66 -46 76 9 11 8 14 -5 14 -9 0 -16 8 -16 20 0 31 -30 37 -50 10
-13 -17 -19 -20 -25 -10 -5 8 -2 18 8 25 14 10 14 12 -3 23 -11 6 -16 19 -14
29 4 16 -3 18 -52 20 -32 2 -62 7 -68 13 -7 7 -5 10 7 10 9 0 17 5 17 10 0 6
20 10 44 10 35 0 50 -6 75 -29 17 -16 31 -34 31 -39 0 -6 15 -20 33 -31 18
-11 42 -29 52 -41 10 -11 26 -20 35 -20 10 0 25 -11 34 -25 9 -13 22 -22 29
-20 6 3 17 -5 22 -17 25 -57 63 0 39 59 -7 17 -10 34 -7 37 3 3 7 97 9 208 1
128 11 271 24 386 12 101 20 185 18 187 -2 2 -377 5 -833 7 l-829 3 -26 82
c-15 45 -39 101 -54 123 -31 48 -107 105 -158 122 -24 7 -38 17 -38 27 0 9 -9
34 -20 56 -21 42 -28 139 -10 150 6 3 10 -1 10 -9 0 -8 10 -18 23 -22 12 -4
33 -21 47 -38 28 -34 52 -59 96 -96 16 -14 34 -34 39 -44 6 -11 16 -17 23 -15
13 4 -1 24 -90 125 -27 30 -48 59 -48 65 0 5 -5 7 -11 3 -7 -4 -9 0 -5 14 5
15 1 21 -19 26 -16 4 -25 13 -25 26 0 29 26 24 50 -9 11 -17 30 -33 41 -36 11
-4 24 -16 28 -28 5 -12 15 -22 24 -22 9 0 26 -16 39 -35 28 -42 48 -48 66 -20
9 15 10 26 2 40 -9 17 -8 20 10 20 14 0 19 -4 14 -12 -5 -8 -2 -9 10 -5 12 5
19 0 26 -16 8 -21 9 -21 9 6 1 25 21 41 21 15 0 -9 3 -9 12 0 17 17 31 15 24
-4 -4 -10 -2 -14 6 -11 17 6 68 -24 68 -40 0 -7 -7 -13 -15 -13 -8 0 -15 -4
-15 -10 0 -5 7 -10 15 -10 9 0 15 -9 15 -25 0 -14 -7 -28 -15 -31 -9 -4 -15
-19 -15 -35 0 -26 4 -29 30 -29 17 0 30 -5 30 -11 0 -6 9 -8 20 -4 18 6 19 2
16 -34 -4 -39 5 -53 19 -31 11 18 26 10 23 -12 -2 -15 2 -23 12 -23 9 0 14 7
12 19 -2 11 1 17 10 14 7 -3 14 -17 16 -32 2 -15 11 -30 20 -33 9 -3 24 -12
33 -20 18 -15 54 -20 183 -22 137 -2 95 -13 -68 -17 -80 -2 -155 -8 -168 -13
-14 -5 230 -11 592 -16 338 -4 619 -10 624 -13 5 -3 1 -9 -10 -13 -11 -5 9 -8
51 -8 39 1 64 3 58 6 -9 3 -10 10 -3 22 10 20 16 143 25 546 3 143 9 272 11
288 6 27 5 27 -45 27 -28 0 -51 -4 -51 -10 0 -5 -7 -10 -15 -10 -8 0 -16 -8
-17 -17 0 -10 -3 -34 -5 -53 -2 -19 -3 -60 -3 -90 l1 -55 -80 6 c-45 3 -84 9
-88 13 -4 4 -6 24 -4 46 2 31 -2 41 -18 50 -13 7 -27 7 -37 2 -12 -6 -23 -2
-41 14 -25 23 -93 40 -129 32 -11 -2 -24 3 -30 11 -10 13 -15 13 -39 -3 -25
-17 -32 -17 -133 -1 -112 17 -212 43 -212 55 0 4 -31 8 -69 9 l-70 1 -5 -147
c-8 -197 -11 -239 -26 -298 -7 -27 -14 -71 -17 -98 -3 -33 -11 -50 -24 -57
-10 -6 -23 -19 -28 -29 -9 -16 -7 -17 14 -13 14 2 25 10 25 17 0 9 13 9 58 -3
31 -9 60 -20 63 -25 4 -5 12 -6 19 -2 8 5 11 1 8 -11 -3 -13 -11 -18 -27 -17
-12 2 -31 -2 -41 -7 -15 -8 -21 -6 -29 7 -6 10 -11 13 -11 6 0 -17 -52 -25
-83 -14 -17 7 -27 18 -27 30 0 11 -5 21 -11 23 -17 6 22 75 49 87 23 11 30 31
11 31 -6 0 -17 -6 -25 -14 -7 -8 -23 -12 -34 -9 -16 4 -23 0 -27 -16 -3 -11
-10 -18 -15 -15 -6 4 -26 10 -44 14 -33 8 -34 7 -34 -21 0 -16 4 -29 9 -29 6
0 9 -9 8 -20 -1 -23 -10 -26 -24 -7 -16 20 -7 139 12 149 9 6 15 23 15 48 0
53 -18 51 -23 -2 l-4 -43 -1 44 c-2 32 -5 42 -16 38 -27 -11 -26 7 1 20 l28
13 -28 -4 c-15 -2 -30 1 -33 6 -3 5 -13 7 -21 4 -9 -4 -22 -1 -30 5 -10 9 -17
9 -25 1 -7 -7 -21 -12 -32 -12 -11 0 -27 -7 -37 -16 -16 -14 -19 -14 -35 11
-12 18 -20 23 -27 16 -16 -16 -27 -13 -27 8 0 33 24 44 65 31 20 -7 44 -8 53
-4 9 4 24 6 33 5 8 -1 21 10 27 24 13 29 32 25 32 -6 0 -22 15 -26 23 -5 3 8
-1 20 -9 27 -8 6 -12 20 -9 29 4 14 1 16 -19 13 -21 -4 -24 -1 -28 34 -6 44
-3 52 14 35 16 -16 28 -15 28 3 0 8 6 13 13 11 36 -12 67 -16 66 -9 -4 24 2
43 12 38 6 -4 8 -13 5 -21 -3 -8 1 -14 10 -14 8 0 14 6 12 13 -4 24 13 56 28
50 7 -3 14 -11 14 -19 0 -17 16 -19 25 -3 4 6 -1 17 -11 24 -14 11 -15 14 -4
15 11 0 11 3 2 12 -10 10 -15 10 -22 -2 -5 -8 -12 -11 -16 -8 -4 4 0 18 9 31
13 21 23 24 61 23 24 -1 52 -8 61 -16 14 -12 18 -12 26 1 25 40 53 39 -1116
39 l-1125 0 -2 -122 c-1 -68 -2 -184 -1 -258 l0 -135 57 -102 c77 -137 71
-164 -41 -198 -16 -4 -23 -14 -23 -31 l0 -24 402 -2 c310 -2 402 -6 406 -15 3
-10 -81 -13 -397 -13 -313 0 -402 -3 -406 -12 -2 -7 -6 -394 -9 -860 l-5 -847
-22 -48 c-30 -65 -31 -69 -34 -141 -3 -68 -10 -85 -26 -62 -9 12 -10 12 -5 -2
3 -10 2 -18 -3 -18 -9 0 -26 -39 -34 -75 -7 -31 -6 1231 1 1615 4 190 5 381 2
425 l-5 80 -35 -2 c-19 -1 -39 -9 -46 -17 -10 -14 -13 -14 -17 -3 -7 18 -56
10 -64 -9 -3 -8 -19 -15 -37 -16 -17 -1 5 -4 48 -7 50 -4 81 -11 84 -18 3 -10
-98 -13 -480 -13 -265 0 -1012 -3 -1659 -7 -647 -3 -1185 -3 -1194 1 -14 5
-15 9 -5 21 8 10 32 15 69 16 31 0 50 3 44 6 -7 2 -13 18 -13 33 0 19 -7 33
-21 40 -29 16 -52 -5 -45 -42 4 -20 1 -28 -8 -28 -10 0 -15 28 -18 118 -3 64
-3 119 -1 121 2 3 9 -1 15 -7 14 -14 67 -16 88 -2 12 7 15 28 13 92 -2 128
-14 248 -24 248 -5 0 -9 18 -9 40 0 22 -4 40 -9 40 -5 0 -12 10 -17 23 -5 15
-9 -8 -14 -73 -3 -52 -10 -103 -14 -113 -8 -17 -9 -17 -21 0 -12 18 -33 95
-33 123 0 8 -4 75 -8 148 l-7 132 -35 0 -35 0 7 -192z m4776 -569 c21 -20 52
-43 69 -50 17 -8 31 -17 31 -22 0 -4 6 -7 13 -5 6 2 26 -7 42 -18 30 -21 59
-25 83 -10 10 6 12 0 6 -31 -8 -44 -27 -70 -58 -76 -11 -2 0 -5 27 -6 52 -1
51 0 35 -36 -8 -17 -19 -25 -37 -25 -20 0 -23 2 -11 10 25 16 -7 12 -40 -5
-16 -8 -33 -14 -37 -13 -4 1 -25 -7 -46 -18 -35 -17 -40 -17 -50 -3 -14 19
-87 35 -87 19 0 -17 -28 -11 -49 12 -18 18 -24 20 -46 10 -42 -19 -54 -77 -26
-121 7 -12 13 -12 24 -3 11 10 17 9 28 -4 11 -13 10 -17 -2 -25 -12 -7 -12 -9
1 -10 8 0 28 -2 44 -4 35 -5 103 30 112 57 7 24 21 23 38 -4 11 -19 16 -125 7
-181 -2 -17 -51 -26 -77 -15 -21 10 -25 17 -20 40 3 15 4 28 2 28 -2 0 -25
-20 -50 -45 -26 -25 -49 -45 -51 -45 -2 0 -5 8 -8 18 -2 9 -4 3 -4 -13 0 -17
-3 -41 -7 -53 -7 -21 -6 -23 11 -14 10 6 36 26 57 46 38 34 39 34 65 18 14 -9
31 -22 36 -29 15 -17 37 -19 63 -5 19 11 27 10 52 -8 31 -22 42 -57 15 -46 -8
3 -15 0 -15 -7 0 -8 -3 -8 -8 -2 -10 15 -71 18 -170 11 -48 -4 -52 -3 -35 9
10 8 13 14 6 15 -7 0 -18 -9 -25 -20 -7 -11 -18 -20 -25 -20 -6 0 -14 -6 -16
-12 -11 -28 -27 18 -27 79 0 69 -11 85 -35 50 -12 -19 -13 -30 -5 -53 6 -16 7
-24 2 -19 -5 6 -20 40 -32 77 -15 44 -28 68 -40 71 -17 4 -18 14 -14 91 3 58
1 86 -6 86 -12 0 -4 78 11 115 5 12 6 4 2 -22 -3 -28 -1 -48 7 -58 21 -25 27
-17 28 31 2 103 38 235 79 290 22 30 24 30 73 20 36 -7 62 -21 90 -47z m-1436
-302 c27 0 46 -4 46 -11 1 -6 7 0 16 14 13 22 14 -72 9 -890 -5 -854 -11
-1149 -21 -1159 -2 -2 -4 13 -4 34 0 21 -3 36 -6 32 -3 -3 -2 -41 2 -84 8 -76
9 -77 15 -33 l7 45 -2 -43 c-1 -47 -19 -58 -24 -16 -3 22 -6 24 -14 13 -7 -10
-8 -2 -4 26 4 22 8 87 10 145 2 58 2 80 0 50 -6 -77 -12 -100 -29 -100 -9 0
-15 14 -17 43 -2 28 -7 4 -17 -78 -12 -105 -25 -145 -46 -145 -10 0 -1 2143 9
2163 6 14 11 15 16 6 5 -6 28 -12 54 -12z m-1826 -42 c7 -14 12 -43 12 -64 0
-22 7 -45 18 -57 11 -11 21 -26 24 -34 6 -20 84 -40 156 -40 34 0 62 -3 62 -8
0 -4 -7 -18 -16 -30 -12 -18 -13 -23 -2 -26 7 -2 27 -9 45 -14 33 -11 103 3
103 20 0 4 7 8 15 8 8 0 15 5 15 10 0 9 -14 14 -32 11 -5 0 -8 6 -8 14 0 11
12 15 48 15 57 0 83 -13 57 -27 -15 -9 -14 -11 11 -18 16 -4 39 -9 52 -11 13
-1 29 -7 35 -12 14 -12 100 0 119 16 10 8 20 6 38 -8 15 -12 41 -20 66 -20 34
0 48 -7 82 -40 23 -21 42 -46 42 -54 0 -29 23 -65 45 -70 19 -5 23 -13 23 -51
1 -25 3 -49 6 -53 2 -4 7 -212 10 -462 3 -250 9 -624 12 -831 l6 -377 -103 -6
c-57 -3 -369 -7 -693 -8 l-590 -3 -37 90 c-21 50 -38 102 -38 117 -1 16 -8 29
-18 33 -36 12 -84 60 -87 88 -2 16 -19 45 -41 67 -25 26 -40 52 -44 77 -4 26
-13 41 -28 48 -12 5 -24 17 -26 25 -4 17 6 102 24 203 6 32 7 84 3 115 -6 48
-12 61 -43 89 -93 84 -120 103 -126 93 -9 -15 -25 -2 -19 15 8 21 34 14 68
-18 34 -32 37 -32 66 -9 16 13 23 31 25 62 3 49 40 92 72 84 24 -6 85 46 90
77 6 39 -6 72 -24 65 -10 -4 -14 -2 -10 8 3 8 -3 25 -13 38 -12 17 -16 29 -9
39 5 8 9 23 9 35 0 61 56 76 233 62 129 -10 131 -10 147 13 17 21 18 21 28 3
9 -17 15 -11 41 48 17 37 31 72 31 77 0 5 -21 13 -47 16 -70 9 -70 10 -68 50
3 43 21 67 31 42 3 -9 10 -17 15 -17 14 0 60 51 54 61 -4 5 1 16 9 25 9 9 16
34 17 57 0 23 3 67 5 97 9 114 10 160 3 160 -4 0 -5 10 -2 23 24 106 31 116
51 72z m3589 -522 c-5 -54 -64 -248 -107 -353 -19 -46 -44 -181 -56 -304 -13
-127 -33 -26 -26 129 1 28 0 64 -4 82 -5 26 0 39 26 72 31 38 32 42 19 72 -7
18 -28 52 -46 76 l-33 43 33 16 c68 35 171 146 182 196 11 48 18 31 12 -29z
m-4188 -1345 c34 -35 40 -64 16 -82 -9 -7 -18 -36 -21 -74 -6 -52 -4 -66 11
-82 22 -24 20 -27 -24 -32 -32 -3 -35 0 -45 34 -10 34 -29 58 -86 112 -18 17
-20 18 -20 3 0 -9 -7 -17 -16 -17 -10 0 -14 7 -12 22 4 30 68 37 68 7 0 -10 4
-20 8 -23 4 -2 6 10 4 29 -2 20 3 44 14 61 22 34 56 74 65 74 4 0 21 -14 38
-32z m5831 -98 c14 -4 18 -8 9 -9 -14 -1 -14 -7 4 -62 10 -33 18 -62 16 -64
-2 -2 -25 -6 -50 -10 l-45 -7 -33 71 c-18 39 -30 75 -26 81 7 12 88 12 125 0z
m-6269 -1015 c8 -21 18 -34 26 -31 7 3 15 1 18 -5 4 -5 12 -6 18 -2 13 8 -12
-28 -28 -39 -5 -4 0 -8 12 -8 12 0 25 5 28 10 4 6 10 8 14 6 6 -4 70 -130 99
-196 10 -23 11 -22 7 13 -4 43 3 46 33 14 22 -24 61 -176 62 -247 1 -34 2 -34
11 -10 6 14 8 43 5 65 -5 28 -3 36 4 25 8 -12 10 -10 10 10 1 24 1 24 15 -5
l13 -30 1 36 c1 37 -42 184 -61 206 -22 27 -1 33 31 9 44 -33 58 -61 81 -168
11 -49 38 -146 60 -215 59 -182 90 -302 90 -353 0 -25 3 -61 6 -81 7 -42 -10
-36 204 -75 290 -54 357 -64 423 -64 64 0 67 1 67 24 0 15 7 27 18 30 28 9 36
3 38 -32 1 -41 12 -52 28 -29 7 9 22 17 32 17 14 0 16 -2 6 -9 -11 -7 -11 -9
1 -14 10 -4 17 9 26 44 15 59 31 64 31 9 0 -23 5 -40 11 -40 6 0 9 7 6 15 -4
8 -2 17 3 20 6 4 10 -3 10 -14 0 -11 -4 -23 -10 -26 -20 -12 -9 -25 20 -25 28
0 30 3 31 38 l2 37 7 -35 7 -35 3 45 c4 82 18 102 19 28 1 -80 16 -90 24 -18
8 70 30 103 23 35 -3 -33 -2 -42 3 -25 8 23 9 22 13 -15 4 -32 5 -28 7 25 4
77 13 116 29 112 7 -1 12 2 12 8 0 5 5 10 11 10 7 0 10 -17 7 -45 -2 -29 1
-46 9 -50 9 -3 13 8 13 38 0 71 17 77 25 8 4 -33 10 -63 13 -65 4 -2 17 0 30
5 16 6 22 17 23 41 2 30 2 31 6 6 4 -28 26 -38 38 -18 3 6 21 10 39 10 33 0
33 0 34 49 1 43 20 116 21 83 1 -7 6 -10 11 -7 6 4 10 -15 10 -50 l0 -56 35 7
c34 6 48 -7 24 -21 -6 -4 -8 -13 -5 -21 3 -8 0 -11 -8 -8 -7 3 -34 -6 -59 -20
-25 -15 -55 -26 -66 -26 -10 0 -48 -13 -83 -30 -34 -16 -71 -30 -80 -30 -10 0
-18 -7 -18 -15 0 -8 -20 -37 -45 -65 -25 -28 -45 -48 -45 -46 0 3 -11 1 -25
-4 -22 -8 -25 -7 -23 6 2 9 -4 18 -13 19 -9 2 -26 6 -37 9 -17 6 -21 1 -27
-24 -6 -28 -28 -45 -23 -17 2 6 -3 11 -11 9 -8 -2 -29 -5 -45 -8 -25 -4 -27
-3 -11 5 28 14 2 13 -32 0 -53 -21 -555 -29 -643 -10 -30 7 -73 15 -95 18 -22
3 -46 10 -52 15 -16 13 -17 1 -2 -57 8 -31 8 -62 1 -102 -6 -36 -6 -65 0 -78
12 -27 -4 -70 -32 -85 -20 -11 -21 -10 -15 9 5 17 3 20 -12 15 -27 -9 -193
-82 -226 -99 -16 -8 -35 -15 -44 -15 -8 0 -47 -11 -86 -24 -40 -13 -106 -27
-147 -30 -64 -5 -80 -3 -107 14 -18 10 -35 31 -39 45 -7 27 -31 33 -65 15 -31
-17 -22 4 11 23 29 18 40 50 21 62 -5 3 -15 30 -21 61 -11 52 -10 57 10 79 22
23 22 23 2 34 -29 15 -61 14 -78 -4 -15 -15 -54 -21 -54 -8 0 3 7 14 15 23 12
13 13 22 3 48 -11 29 -10 34 17 62 16 17 35 28 43 25 48 -18 62 -17 71 6 5 13
21 36 35 51 14 15 26 30 26 33 0 9 -68 5 -97 -6 -15 -6 -38 -20 -50 -31 -12
-11 -27 -18 -35 -16 -7 3 -20 -3 -30 -11 -23 -22 -118 -78 -145 -86 -18 -5
-23 -2 -23 13 0 25 24 45 90 75 52 24 53 25 23 26 -35 1 -53 23 -53 64 0 20
-15 33 -79 71 l-79 47 -7 65 c-7 61 -6 66 19 90 14 15 32 24 40 21 11 -5 17 5
22 40 6 40 4 49 -15 64 -11 9 -21 28 -21 41 0 41 38 178 57 206 9 15 24 41 33
57 11 23 21 29 40 27 13 -1 27 -8 31 -14 9 -14 23 17 33 75 5 25 4 37 -3 33
-5 -4 -12 -2 -16 4 -3 5 -1 10 5 10 6 0 18 16 26 36 19 45 61 99 93 121 23 15
24 14 17 -3 -3 -11 9 -2 28 19 19 20 42 37 51 37 14 0 15 3 6 14 -9 11 -4 18
24 35 20 11 40 21 44 21 4 0 17 11 29 25 30 34 48 31 63 -10z m-401 -160 c0
-3 -24 -54 -54 -114 -31 -63 -61 -142 -71 -185 -22 -96 -34 -114 -69 -98 -23
10 -24 14 -14 44 6 18 17 42 25 53 7 11 13 34 13 51 0 17 7 37 15 44 8 7 15
21 15 32 0 32 41 101 84 141 38 34 56 45 56 32z"/>
<path d="M1490 5366 c-48 -10 -121 -39 -199 -79 -14 -6 -26 -18 -29 -24 -4
-13 3 -17 51 -27 17 -4 31 -16 37 -31 6 -14 18 -25 28 -25 19 0 72 42 72 57 0
11 62 47 78 44 6 -1 12 8 12 20 0 12 8 28 18 35 15 11 15 14 2 27 -12 12 -24
13 -70 3z"/>
<path d="M1215 5039 c-4 -5 -10 -7 -15 -4 -5 3 -6 -10 -3 -30 3 -21 1 -41 -7
-50 -10 -12 -10 -19 -2 -27 7 -7 12 -17 12 -22 -1 -6 -12 3 -25 19 -30 37 -31
31 -4 -29 18 -41 20 -58 14 -135 -7 -82 -6 -90 14 -110 11 -11 26 -21 33 -21
6 0 9 3 5 6 -3 3 6 19 20 35 23 26 33 29 85 29 38 0 77 8 109 21 57 25 65 49
17 49 -53 0 -78 11 -78 31 0 26 21 33 65 20 46 -12 65 -5 65 24 0 13 11 30 26
40 21 14 25 23 22 51 -2 19 0 34 6 34 5 0 7 2 5 5 -3 2 -20 0 -38 -5 -18 -5
-42 -5 -54 -1 -13 5 -34 3 -55 -6 -41 -17 -56 -9 -48 28 3 16 2 29 -2 30 -4 0
-16 3 -27 6 -11 3 -34 5 -52 4 -18 0 -43 3 -57 9 -16 6 -27 6 -31 -1z"/>
<path d="M475 7443 c6 -106 14 -259 21 -438 7 -184 21 -376 29 -383 3 -4 15
-1 25 6 15 9 230 12 911 12 822 0 891 1 885 16 -8 21 17 60 44 69 25 8 26 22
0 30 -10 3 -25 22 -32 41 -14 39 -17 40 -49 16 -13 -11 -31 -20 -39 -21 -122
-13 -146 -12 -158 2 -10 12 -7 20 18 46 35 35 31 39 -40 43 -41 3 -45 5 -45
28 0 24 -2 25 -67 25 -74 0 -96 12 -80 42 7 12 7 25 1 36 -6 9 -7 21 -4 27 3
5 -11 12 -32 16 -21 3 -53 15 -71 25 -18 10 -51 19 -74 19 l-41 0 6 36 c3 20
13 44 21 53 8 9 25 60 37 115 13 54 29 100 35 103 6 2 40 -11 75 -30 49 -26
85 -37 155 -46 119 -15 138 -14 95 4 -18 8 -52 15 -76 15 -24 0 -48 6 -54 14
-7 8 -21 12 -31 9 -16 -4 -20 0 -20 20 0 38 24 53 54 34 21 -14 25 -14 39 0
14 14 14 19 1 44 -13 26 -17 27 -39 17 -22 -10 -28 -9 -41 10 -14 21 -18 21
-455 22 -438 0 -441 0 -436 -20 3 -13 0 -20 -10 -20 -8 0 -17 9 -20 20 -5 19
-14 20 -274 20 l-269 0 5 -77z"/>
<path d="M3670 7460 c0 -47 7 -74 30 -120 37 -74 50 -82 51 -33 1 21 2 77 4
126 l3 87 -44 0 -44 0 0 -60z"/>
<path d="M8163 7496 c0 -27 -27 -61 -41 -52 -5 3 -16 -9 -26 -25 -14 -24 -15
-33 -6 -44 8 -10 18 -12 28 -6 10 6 27 2 51 -11 20 -11 54 -22 76 -24 42 -3
62 -6 135 -24 25 -6 65 -10 90 -8 57 4 64 -18 21 -68 -17 -19 -31 -36 -31 -38
0 -2 23 -1 50 2 41 4 50 2 50 -12 0 -9 -8 -16 -20 -16 -11 0 -20 -4 -20 -10 0
-5 9 -10 20 -10 11 0 20 -7 20 -15 0 -8 -7 -15 -15 -15 -9 0 -20 -11 -25 -25
-5 -14 -16 -25 -25 -25 -8 0 -15 -5 -15 -11 0 -6 -8 -7 -22 -3 -13 4 -39 9
-58 10 -19 1 -45 5 -57 9 -15 5 -23 3 -23 -4 0 -6 9 -11 20 -11 11 0 20 -6 20
-14 0 -8 -9 -18 -20 -21 -11 -3 -20 -13 -20 -21 0 -11 -6 -13 -19 -9 -14 4
-23 -1 -32 -17 -7 -13 -12 -25 -11 -28 1 -3 -2 -5 -8 -5 -5 0 -10 5 -11 10 -1
13 -19 35 -29 35 -3 0 -13 -11 -20 -25 -10 -19 -21 -25 -47 -25 -18 0 -33 5
-33 10 0 6 -7 10 -15 10 -8 0 -15 4 -15 8 0 5 -23 14 -52 21 -60 13 -63 11
-72 -60 -5 -33 -11 -49 -21 -49 -8 0 -15 5 -15 10 0 6 -7 10 -15 10 -10 0 -15
10 -15 30 0 20 5 30 15 30 8 0 15 9 15 20 0 23 -15 27 -27 7 -12 -21 -70 -29
-77 -12 -3 9 -20 14 -48 14 -42 -1 -65 8 -120 45 -16 10 -35 16 -43 12 -21 -8
-19 9 3 31 39 38 34 71 -8 58 -12 -4 -20 -15 -20 -29 0 -13 -6 -29 -14 -35 -8
-7 -17 -23 -20 -36 -4 -14 -12 -25 -19 -25 -7 0 -18 -9 -25 -20 -12 -19 -14
-19 -37 -4 -33 22 -31 32 6 41 l30 8 -46 23 c-52 25 -50 27 -60 -68 -17 -174
-21 -257 -14 -277 5 -15 5 -23 -2 -23 -6 0 -8 -4 -5 -9 4 -5 0 -11 -6 -14 -7
-2 248 -7 567 -10 319 -4 691 -9 826 -11 l245 -4 2 60 c1 34 -3 67 -10 75 -8
10 -7 17 7 26 22 17 31 105 41 391 5 157 4 215 -5 220 -6 4 -36 2 -66 -5 -40
-9 -61 -9 -82 -1 -25 10 -62 12 -178 10 -52 0 -95 5 -95 13 0 13 -178 3 -195
-11 -13 -11 -18 -11 -25 -1 -6 10 -9 10 -15 1 -4 -6 -13 -9 -20 -6 -7 2 -21
-1 -31 -9 -11 -8 -25 -10 -34 -5 -8 4 -19 9 -25 10 -30 6 -71 70 -61 96 4 10
-3 14 -23 14 -24 0 -28 -4 -28 -24z"/>
<path d="M2372 7338 c-5 -7 -12 -23 -16 -34 -4 -12 -23 -33 -44 -48 -20 -14
-43 -35 -50 -46 -7 -12 -29 -28 -48 -36 -18 -8 -34 -18 -34 -23 0 -14 175 -55
192 -45 9 6 11 94 3 94 -3 0 -14 -9 -25 -20 -11 -11 -29 -20 -39 -20 -40 0
-33 23 23 77 43 42 56 62 56 84 0 32 -3 35 -18 17z"/>
<path d="M2500 6685 c-8 -21 -14 -24 -35 -19 -15 4 -25 2 -25 -5 0 -6 10 -13
23 -16 28 -6 265 -13 704 -21 l342 -6 -6 21 c-5 21 -11 21 -252 21 -243 1
-574 20 -661 39 -68 15 -80 13 -90 -14z"/>
<path d="M7363 6597 c-3 -5 -7 -93 -10 -195 -2 -103 -8 -252 -13 -332 -4 -80
-5 -148 -1 -152 4 -4 119 -9 256 -10 239 -3 249 -4 220 -19 -25 -14 -62 -17
-215 -17 -102 0 -203 3 -225 7 -22 4 -46 6 -53 3 -17 -5 -15 -47 3 -62 8 -7
15 -29 15 -50 0 -20 3 -39 6 -43 12 -11 34 6 34 27 1 20 2 20 14 4 7 -10 20
-18 27 -18 8 0 31 -11 52 -25 34 -24 57 -26 57 -5 0 4 -16 17 -35 29 -19 11
-35 27 -35 36 0 8 -8 15 -17 15 -10 0 -27 7 -37 15 -18 14 -11 15 68 15 89 0
118 -9 178 -53 15 -11 31 -18 34 -14 3 3 -15 20 -40 38 -25 18 -46 36 -46 40
0 4 19 6 43 4 44 -2 206 -79 198 -93 -2 -4 -24 -18 -50 -32 -41 -22 -46 -29
-49 -62 -2 -21 -8 -38 -14 -38 -5 0 -8 -7 -4 -15 3 -8 1 -15 -5 -15 -6 0 -8
-4 -5 -9 9 -13 -14 -28 -63 -41 -57 -15 -121 -82 -121 -127 0 -17 5 -35 10
-38 6 -3 10 -15 10 -25 0 -24 27 -29 195 -33 105 -2 137 -7 165 -22 27 -15 62
-20 158 -23 117 -4 122 -4 122 16 0 15 8 21 38 24 20 3 39 4 41 2 2 -1 -10
-27 -27 -56 -17 -29 -36 -80 -43 -113 -14 -72 -5 -195 16 -195 7 0 19 -8 26
-17 12 -16 12 -17 -2 -5 -10 7 -28 10 -49 5 -30 -6 -32 -7 -15 -20 17 -12 15
-13 -21 -15 -21 -1 -48 -3 -59 -4 -11 -1 -26 -2 -33 -3 -7 -1 -11 -5 -7 -10 3
-6 -8 -8 -29 -4 -43 7 -58 -13 -26 -37 13 -9 20 -22 16 -29 -11 -17 -56 16
-49 36 9 22 -36 8 -59 -19 -16 -18 -16 -23 -3 -48 8 -15 37 -48 64 -71 59 -52
221 -153 221 -139 0 6 -9 36 -20 67 -11 32 -20 72 -20 91 0 34 -15 71 -34 85
-6 4 1 5 17 1 22 -5 27 -3 27 13 0 11 12 35 26 54 l26 34 -5 -31 c-5 -26 -2
-33 19 -44 21 -12 26 -11 39 6 8 10 15 31 15 47 0 15 4 27 9 27 14 0 57 -39
44 -40 -7 0 -13 -5 -13 -10 0 -6 -7 -27 -17 -48 -9 -20 -15 -41 -14 -45 1 -4
2 -19 3 -32 2 -26 12 -32 23 -14 5 7 13 5 24 -5 15 -13 22 -14 44 -3 15 6 27
18 27 25 0 16 11 15 35 -2 18 -12 46 -19 125 -30 14 -2 28 -4 33 -5 13 -2 7
-29 -8 -35 -8 -3 -15 -11 -15 -18 0 -14 -88 -98 -103 -98 -4 0 -7 -6 -5 -14 3
-16 -3 -18 -29 -10 -35 11 -63 27 -63 36 0 5 5 6 10 3 18 -11 9 19 -19 65 -22
37 -33 45 -57 45 -20 0 -32 -7 -39 -22 -5 -13 -15 -23 -21 -23 -15 0 -46 -35
-37 -43 3 -4 14 -7 24 -7 10 0 27 -12 38 -26 17 -22 26 -25 53 -20 27 5 36 2
47 -15 13 -21 12 -22 -21 -15 -104 22 -129 24 -123 7 4 -9 8 -26 10 -39 3 -31
37 -61 77 -69 48 -9 66 -20 82 -51 l15 -28 -39 -2 c-26 -2 -39 2 -43 13 -13
32 -26 13 -26 -38 0 -29 0 -57 -1 -62 -5 -24 1 -34 18 -28 25 9 97 79 149 146
24 31 48 57 54 57 16 0 10 -40 -17 -94 -23 -47 -174 -223 -174 -202 0 5 -6 3
-14 -3 -11 -9 -15 -7 -21 11 -4 13 -6 28 -6 33 1 6 -8 -2 -21 -16 -27 -31 -71
-59 -92 -59 -9 0 -21 -10 -27 -22 -7 -13 -24 -37 -38 -54 -14 -17 -33 -40 -41
-50 -9 -10 -20 -40 -26 -67 -10 -41 -9 -53 8 -86 14 -29 19 -61 20 -128 0 -49
-3 -99 -6 -110 -4 -12 -2 -24 3 -28 7 -4 7 -14 0 -32 -5 -14 -7 -43 -5 -64 7
-55 47 -212 57 -224 5 -5 9 -21 9 -35 0 -14 4 -30 9 -35 13 -15 23 -65 12 -65
-10 0 -22 -48 -27 -114 -2 -28 -10 -53 -16 -58 -10 -6 -9 -8 2 -8 12 0 12 -2
2 -9 -7 -4 -24 -31 -37 -60 -32 -69 -43 -78 -101 -86 -184 -24 -168 -14 -189
-126 l-12 -66 61 -29 c34 -16 65 -28 69 -26 5 1 6 -2 2 -7 -3 -6 -13 -7 -22
-4 -10 4 -14 2 -10 -4 4 -6 0 -13 -8 -17 -8 -3 -17 0 -21 6 -5 7 -2 8 6 3 9
-5 11 -4 6 4 -4 6 -12 9 -17 6 -5 -4 -12 1 -15 9 -3 9 -11 16 -16 16 -6 0 -3
-11 6 -25 19 -28 20 -35 6 -35 -5 0 -27 37 -49 82 -38 78 -72 134 -157 253
-21 29 -33 56 -30 68 4 18 -22 74 -52 110 -8 9 -11 17 -5 17 6 0 27 -25 47
-55 20 -30 38 -55 41 -55 2 0 -11 27 -30 59 -32 57 -32 60 -12 59 31 -2 45
-15 73 -70 13 -26 27 -48 30 -48 2 0 0 9 -6 19 -18 34 -11 31 36 -17 32 -32
41 -38 30 -19 -9 15 -12 27 -7 27 13 0 19 -11 25 -44 5 -29 25 -60 34 -52 2 3
13 -6 24 -19 18 -23 58 -35 58 -17 0 36 -32 177 -42 184 -7 5 -27 7 -43 6 -17
-1 -36 1 -43 6 -25 15 -10 26 38 26 49 0 68 14 33 23 -14 4 -13 5 4 6 22 1 22
4 16 64 -3 34 -7 64 -9 66 -2 2 -45 -7 -96 -20 -81 -20 -112 -22 -233 -19 -77
2 -182 4 -233 5 -50 0 -92 4 -92 8 0 4 -9 3 -19 -3 -11 -5 -38 -10 -61 -10
-47 0 -110 -26 -110 -45 0 -16 -57 -25 -87 -14 -12 4 -54 4 -95 0 -80 -9 -90
-7 -81 14 6 18 -15 75 -28 75 -13 0 -52 -23 -61 -35 -5 -6 -8 -5 -8 3 0 14
-26 17 -34 3 -3 -5 9 -16 27 -26 20 -10 23 -14 10 -11 -34 9 -60 14 -45 9 18
-6 15 -23 -5 -30 -10 -4 -21 -11 -24 -16 -3 -4 -14 -1 -23 8 -16 16 -18 16
-36 0 -25 -22 -25 -32 -2 -38 21 -5 12 -9 -71 -32 l-57 -16 4 -52 c3 -41 9
-55 30 -70 21 -15 24 -22 16 -37 -17 -32 -11 -38 36 -37 33 1 48 -2 52 -12 3
-10 0 -12 -11 -8 -11 4 -14 2 -11 -8 7 -17 -49 -137 -72 -156 -14 -12 -15 -8
-9 34 8 55 -6 63 -26 16 -7 -18 -22 -43 -34 -58 -12 -14 -28 -43 -36 -65 -8
-21 -20 -41 -26 -43 -7 -3 -13 -11 -13 -18 0 -6 -9 -20 -19 -29 -18 -17 -20
-16 -32 21 -7 21 -13 66 -12 101 0 34 -2 62 -6 62 -10 0 -49 -112 -57 -163 -4
-30 -2 -65 6 -90 35 -120 55 -177 80 -227 30 -61 46 -156 29 -176 -17 -21 -2
-70 21 -70 11 0 20 5 20 11 0 5 12 23 26 38 41 47 50 26 58 -126 6 -114 5
-139 -10 -176 l-17 -43 43 -37 c41 -35 42 -37 32 -73 -6 -21 -8 -47 -5 -58 4
-13 -3 -33 -16 -50 -11 -16 -21 -33 -21 -39 0 -11 24 -21 53 -21 42 -1 76 -47
47 -65 -12 -7 10 -53 36 -76 11 -9 30 -19 44 -22 14 -4 53 -28 87 -55 44 -35
77 -53 115 -62 29 -6 82 -20 118 -31 36 -11 94 -28 130 -39 36 -10 79 -21 95
-24 17 -2 37 -7 46 -11 9 -3 23 0 31 8 7 8 32 20 53 27 81 26 145 60 161 85
16 24 19 25 118 23 l101 -2 -75 -7 c-54 -5 -41 -6 50 -3 257 8 751 12 660 5
-101 -8 -72 -13 70 -13 l85 0 -90 -12 -90 -13 35 -15 c19 -9 59 -35 88 -58
l53 -43 297 8 c417 10 722 13 727 5 6 -9 -15 -10 -220 -15 -161 -3 -306 -9
-485 -21 -19 -1 -95 -5 -169 -9 -107 -7 -131 -11 -118 -20 9 -7 14 -15 10 -18
-3 -4 -1 -7 6 -7 7 0 9 -5 5 -11 -5 -9 15 -10 72 -6 43 3 205 9 359 12 154 3
290 8 303 11 12 2 22 0 22 -6 0 -6 -45 -10 -117 -10 -65 0 -183 -5 -263 -10
-80 -5 -191 -10 -248 -11 -57 -2 -106 -7 -109 -12 -3 -6 23 -7 68 -4 41 4 218
8 394 11 l320 5 -245 -10 c-135 -5 -311 -12 -392 -16 -143 -8 -146 -8 -132
-28 14 -18 28 -19 342 -18 l327 1 -240 -14 c-356 -20 -411 -26 -407 -43 16
-72 19 -67 -44 -79 -57 -12 -134 -16 -134 -8 0 3 4 16 10 30 13 35 2 33 -41
-7 -59 -54 -175 -77 -584 -112 -99 -9 -227 -20 -285 -25 -135 -13 -240 -13
-240 0 0 5 18 13 41 16 22 4 50 15 62 25 l22 17 -30 12 c-57 22 -175 -19 -175
-61 0 -6 -6 -9 -12 -6 -7 2 -22 0 -33 -4 -15 -7 -11 -8 17 -7 20 1 40 -1 44
-5 4 -4 -24 -8 -62 -9 -38 -1 -85 -3 -104 -4 -346 -23 -743 -27 -1090 -13
-102 4 -264 10 -360 13 -96 3 -222 9 -280 12 -85 5 -108 4 -117 -8 -8 -8 -17
-93 -25 -216 l-13 -202 2577 0 2578 0 0 2390 c0 2188 -1 2390 -16 2390 -10 0
-14 -6 -10 -15 3 -8 1 -15 -4 -15 -6 0 -10 -7 -10 -15 0 -11 -12 -15 -40 -16
-22 -1 -45 -2 -52 -3 -38 -3 -40 226 -4 426 14 79 27 163 30 188 2 25 11 77
20 115 9 39 16 88 16 111 0 52 -37 110 -68 107 -12 -2 -22 3 -23 10 -1 6 -5 1
-9 -13 -5 -15 -8 -19 -9 -8 -1 9 4 29 11 45 17 40 55 193 49 198 -2 3 -14 5
-27 5 -19 0 -28 -16 -67 -117 -63 -164 -64 -167 -92 -363 -14 -96 -36 -240
-50 -320 -29 -173 -52 -319 -60 -379 -8 -55 -22 -91 -35 -91 -5 0 -10 11 -10
24 0 15 -13 36 -32 54 -18 17 -45 41 -59 53 -14 13 -29 37 -33 52 l-7 28 44
-29 c24 -17 49 -37 56 -46 14 -17 41 -22 41 -7 0 11 61 427 89 608 12 73 26
172 31 220 5 48 17 137 25 197 12 88 12 114 2 135 -8 16 -53 51 -122 93 -93
57 -263 155 -287 166 -4 2 -9 -16 -12 -40 -21 -165 -79 -572 -86 -613 -6 -27
-12 -83 -14 -124 -3 -41 -10 -79 -15 -84 -8 -8 -11 -8 -11 0 0 17 -61 73 -102
94 -20 10 -39 27 -42 37 -4 10 -17 29 -30 41 -23 22 -25 22 -70 7 -65 -22 -85
-21 -56 2 23 19 21 42 -4 42 -8 0 -16 10 -19 21 -5 17 -11 20 -31 15 -27 -7
-35 5 -28 41 2 13 11 23 18 23 11 0 14 23 14 112 l0 111 -336 -7 c-201 -4
-340 -3 -347 2 -24 18 -141 52 -150 43 -9 -9 -22 0 -75 50 -25 23 -99 59 -122
59 -6 0 -9 -5 -7 -11 4 -18 -17 -21 -38 -4 -17 12 -18 14 -3 15 11 0 15 6 11
19 -7 27 12 35 40 16 13 -8 34 -15 48 -14 13 1 49 -2 80 -6 47 -6 57 -5 62 9
5 12 0 16 -21 17 l-27 1 25 8 c15 5 18 8 8 9 -9 1 -24 -2 -32 -5 -15 -6 -15
-8 1 -21 17 -13 16 -14 -7 -9 -14 3 -35 6 -47 6 -27 0 -31 17 -5 23 15 4 14 5
-2 6 -20 1 -20 1 0 16 10 8 31 15 46 15 15 0 43 8 62 17 28 13 33 19 25 30
-16 18 351 19 381 1 17 -11 22 -10 30 2 8 13 10 13 10 -1 0 -26 20 -36 83 -42
57 -6 58 -5 64 23 5 27 29 47 41 35 3 -3 0 -5 -6 -5 -7 0 -12 -11 -12 -25 0
-18 4 -23 15 -19 8 4 15 14 15 25 0 20 52 35 95 27 14 -3 25 -5 26 -4 0 0 3
33 5 71 3 39 11 132 19 207 8 75 15 139 15 142 0 13 -141 16 -863 19 -463 2
-780 0 -784 -6z m1881 -1196 c3 -5 14 -7 24 -5 11 3 25 -7 39 -28 l23 -33 -62
-62 c-56 -56 -82 -73 -78 -50 0 4 -6 15 -15 23 -21 21 -19 42 8 81 25 37 33
39 61 18 23 -17 36 -19 36 -5 0 5 -16 20 -35 33 -19 13 -32 27 -28 30 9 10 21
9 27 -2z m283 -562 c27 -10 103 -76 103 -90 0 -3 -51 -9 -112 -12 -134 -8
-187 -21 -210 -50 -14 -18 -18 -19 -22 -7 -15 39 -23 116 -15 136 8 22 15 23
101 27 51 1 101 4 110 5 9 1 29 -3 45 -9z m-87 -287 c19 -6 54 -16 77 -22 41
-10 42 -12 36 -43 -3 -18 -14 -42 -25 -53 -12 -14 -21 -43 -25 -80 l-6 -59 32
28 33 27 28 -29 c32 -32 82 -49 88 -31 2 6 9 1 16 -12 8 -15 11 -64 8 -148 -2
-69 -3 -132 -2 -140 0 -8 0 -23 1 -32 0 -19 39 -34 63 -25 9 4 16 -3 20 -18 4
-16 11 -22 21 -19 12 5 14 0 8 -26 -4 -23 -30 -57 -85 -112 -43 -43 -89 -96
-103 -118 -14 -22 -32 -40 -40 -40 -29 0 -19 -19 48 -87 12 -13 28 -23 35 -23
10 0 12 -7 8 -25 -5 -21 -3 -25 16 -25 21 -1 22 -2 6 -14 -10 -7 -18 -21 -18
-30 0 -33 -52 -107 -84 -121 -17 -7 -55 -23 -85 -36 l-53 -23 -24 27 c-25 29
-32 79 -15 106 6 9 6 22 0 34 -8 14 -7 22 7 31 22 16 10 36 -22 36 -28 0 -29
7 -9 34 12 16 15 17 15 4 0 -9 14 -21 30 -27 17 -5 30 -8 30 -5 0 14 -3 19
-11 17 -5 -2 -9 4 -9 12 0 8 -4 15 -10 15 -5 0 -10 7 -10 16 0 9 -14 32 -31
52 -25 28 -30 41 -25 65 3 16 6 36 6 44 0 11 7 13 30 8 26 -6 30 -4 30 15 0
39 -18 60 -43 51 -14 -6 -30 -5 -41 1 -10 5 -20 7 -23 4 -4 -3 -12 -1 -20 5
-9 9 -13 8 -13 0 0 -21 -20 -11 -26 14 -4 16 1 36 15 58 21 34 21 35 2 58
l-19 24 5 -30 c3 -23 2 -27 -6 -15 -9 13 -11 12 -11 -4 0 -15 -3 -16 -15 -6
-13 11 -14 10 -9 -6 4 -10 5 -17 3 -14 -2 3 -20 23 -39 44 l-35 38 33 -4 c17
-3 32 0 32 5 0 5 6 7 14 4 8 -3 16 2 19 14 4 17 9 19 24 11 10 -6 25 -22 33
-36 7 -14 17 -26 20 -26 4 0 18 16 31 36 l24 36 -57 61 c-32 33 -58 62 -58 64
0 2 14 -4 31 -13 24 -12 33 -13 39 -4 5 7 13 9 21 4 7 -4 0 11 -17 34 -16 22
-31 36 -33 31 -1 -6 5 -20 15 -32 16 -19 15 -18 -8 2 -21 18 -25 27 -17 37 16
20 49 -5 84 -66 16 -27 33 -50 37 -50 4 0 8 33 8 73 0 42 5 78 11 84 9 9 8 29
-4 80 -9 37 -20 88 -23 113 -4 25 -27 81 -51 126 -23 44 -43 84 -43 88 0 3 17
-2 38 -12 20 -11 53 -24 72 -30z m-922 -330 c-7 -10 -34 -37 -60 -61 -27 -24
-48 -52 -48 -63 0 -10 -3 -17 -7 -15 -5 3 -9 -11 -10 -32 -1 -30 0 -32 8 -13
12 32 24 27 44 -17 19 -44 15 -86 -13 -109 -9 -7 -11 -11 -4 -7 14 7 15 4 6
-19 -3 -9 -11 -13 -18 -9 -6 3 -8 3 -4 -1 6 -7 -21 -97 -42 -141 -6 -11 -11
-29 -13 -40 -1 -11 -5 -24 -9 -30 -3 -5 -9 -25 -13 -42 -3 -18 -11 -33 -15
-33 -5 0 -7 8 -3 18 9 24 3 17 -55 -65 -66 -92 -84 -113 -94 -107 -4 3 -5 -1
-3 -8 3 -8 -2 -22 -11 -33 -13 -16 -15 -17 -10 -3 3 10 2 19 -2 22 -5 3 -9 24
-10 48 -2 24 -5 51 -8 60 -3 11 5 26 20 39 15 13 26 27 26 33 0 6 -5 3 -11 -6
-5 -10 -16 -18 -24 -18 -10 0 -13 28 -14 130 -2 157 9 185 99 256 33 26 60 50
60 54 0 3 17 16 38 28 21 11 44 32 52 46 7 14 17 23 22 20 4 -3 8 -1 8 5 0 12
111 130 123 131 5 0 2 -8 -5 -18z m440 -179 c17 -9 32 -20 32 -25 0 -7 -4 -7
-12 0 -7 6 -29 12 -48 14 -32 3 -34 1 -37 -28 -2 -26 2 -32 35 -47 102 -46
118 -69 87 -125 -8 -15 -23 -63 -34 -108 -11 -46 -52 -151 -98 -248 -74 -160
-80 -169 -115 -181 -60 -20 -114 -71 -164 -153 -25 -42 -69 -102 -98 -134 -67
-74 -135 -152 -181 -208 -44 -54 -91 -100 -102 -100 -4 0 -9 -12 -10 -26 -1
-26 -18 -52 -28 -43 -2 3 -6 26 -7 52 -2 28 -7 46 -13 43 -6 -2 -12 7 -13 20
-1 13 3 24 9 24 5 0 8 -4 4 -9 -3 -5 -1 -13 5 -16 6 -4 10 -3 9 2 -4 22 2 25
15 7 14 -18 15 -18 12 -1 -1 10 -7 22 -13 25 -5 4 -12 12 -14 19 -3 9 -9 8
-22 -2 -19 -14 -48 -107 -68 -222 -10 -62 -15 -73 -32 -73 -18 0 -19 5 -13 68
6 65 28 156 48 198 13 27 65 57 89 51 17 -5 19 1 19 59 0 63 1 66 46 114 26
27 50 48 54 45 8 -5 42 29 36 36 -3 3 33 50 80 104 47 55 93 114 101 130 22
42 43 65 62 65 11 0 36 46 79 144 66 150 117 243 159 292 24 28 24 27 -3 -21
-34 -60 -50 -92 -105 -210 -84 -182 -99 -218 -94 -223 3 -3 7 -3 9 -1 7 6 126
268 148 324 21 55 97 175 110 175 4 0 7 15 7 33 -1 23 -3 26 -6 10 -4 -23 -23
-33 -23 -12 0 5 -4 7 -10 4 -6 -4 -10 7 -10 24 0 17 -4 31 -10 31 -5 0 -10
-11 -10 -25 0 -14 -4 -25 -10 -25 -5 0 -10 11 -10 24 0 20 -4 23 -22 19 -36
-9 -58 -34 -58 -65 0 -21 -5 -28 -20 -28 -11 0 -23 7 -27 16 -6 15 -8 15 -20
-2 -7 -10 -13 -14 -13 -9 0 14 -69 -96 -76 -120 -14 -49 -27 -75 -41 -75 -27
0 3 65 76 164 23 31 80 84 133 124 51 38 107 83 123 99 32 32 45 33 103 6z
m-218 -233 c0 -10 -24 -57 -54 -103 -30 -46 -64 -107 -75 -135 -11 -29 -34
-79 -51 -112 -28 -56 -32 -60 -57 -54 -18 5 -30 2 -37 -8 -6 -8 -32 -38 -58
-67 l-46 -51 21 52 c26 62 71 111 95 104 22 -7 52 51 52 98 0 24 10 46 35 76
19 23 35 48 35 54 0 7 27 36 60 65 43 37 60 59 60 77 0 13 5 24 10 24 6 0 10
-9 10 -20z m-1666 -748 c3 -5 18 -7 34 -4 16 2 35 -2 43 -10 8 -7 34 -20 59
-28 94 -29 128 -57 70 -57 -16 0 -26 5 -23 10 3 6 -2 5 -12 -1 -18 -10 -96 -5
-105 7 -3 4 -25 13 -50 20 -44 13 -80 36 -80 52 0 14 56 24 64 11z m2762 -368
c-4 -9 -4 -25 -1 -35 6 -17 9 -16 30 9 14 15 25 24 25 20 0 -4 -21 -32 -47
-61 -27 -29 -57 -64 -69 -78 -23 -26 -113 -109 -119 -109 -2 0 -23 -20 -47
-43 -24 -24 -49 -46 -57 -48 -11 -4 -12 -9 -2 -27 17 -31 10 -76 -11 -80 -10
-2 -18 2 -18 8 0 6 -7 19 -17 28 -15 16 -16 15 -11 -11 3 -15 -1 -35 -8 -44
-13 -17 -14 -17 -8 2 5 17 2 16 -15 -5 -22 -26 -28 -21 -11 10 7 14 6 18 -5
16 -8 -1 -18 -6 -22 -11 -4 -4 -2 -5 5 -1 15 9 15 -2 -2 -33 l-13 -24 -7 27
c-4 15 -4 32 0 38 4 6 3 8 -3 5 -16 -10 -47 73 -33 87 8 8 9 6 4 -8 -5 -14 -4
-17 5 -11 10 6 11 2 6 -15 -5 -17 -4 -21 6 -15 9 6 11 3 6 -11 -7 -18 -7 -18
8 0 8 11 15 25 15 30 0 6 -5 4 -11 -4 -9 -13 -10 -13 -6 0 2 8 13 14 25 14 14
-1 19 3 15 15 -3 9 4 3 15 -12 14 -21 21 -25 25 -14 5 14 0 40 -25 124 -6 23
-9 45 -6 48 12 12 37 -8 43 -36 6 -28 29 -59 43 -59 4 0 20 11 36 25 16 14 32
25 36 25 4 0 13 11 20 25 7 13 38 51 69 83 31 32 74 84 96 115 40 58 52 70 41
41z m-626 -162 c0 -15 -5 -66 -11 -112 -6 -47 -11 -121 -11 -165 -1 -76 -2
-81 -31 -108 -29 -27 -32 -28 -44 -11 -11 15 -9 20 11 39 21 19 23 32 29 151
6 126 28 234 47 234 6 0 10 -12 10 -28z m-1335 -192 c-3 -4 2 -10 10 -14 8 -3
15 -12 15 -21 0 -8 4 -15 8 -15 11 0 82 -102 82 -117 0 -6 20 -33 45 -61 25
-27 56 -69 69 -92 14 -25 26 -37 31 -31 3 7 -25 50 -64 99 -39 47 -71 95 -71
105 0 11 -23 49 -51 86 -52 68 -28 46 52 -49 129 -152 157 -186 191 -234 20
-28 35 -57 33 -64 -3 -7 -1 -11 4 -8 13 8 34 -21 25 -35 -4 -7 -3 -9 3 -6 9 6
83 -102 83 -120 0 -15 44 -58 61 -59 18 -1 17 2 -7 45 -31 53 -61 88 -51 58 4
-11 3 -16 -4 -12 -6 4 -8 14 -5 22 3 8 -2 27 -12 41 -31 44 -36 56 -24 48 7
-4 12 -2 12 3 0 6 -4 11 -9 11 -9 0 -24 30 -18 37 7 6 92 -122 89 -134 -1 -6
3 -15 9 -19 8 -5 10 -2 5 7 -16 30 37 -39 75 -99 23 -34 45 -60 50 -57 5 4 7
0 4 -7 -3 -7 15 -40 40 -72 40 -53 48 -76 27 -76 -4 0 -23 25 -41 55 -18 30
-37 52 -42 49 -5 -3 -6 1 -3 9 3 8 -6 21 -21 31 -14 9 -23 21 -20 26 3 5 1 11
-5 15 -15 9 -12 -38 3 -54 10 -11 10 -13 0 -7 -38 21 10 -50 124 -186 175
-207 213 -254 213 -260 0 -25 -35 0 -77 55 -26 34 -84 105 -128 157 -44 52
-90 108 -103 124 l-22 29 0 -29 c0 -81 13 -134 42 -169 37 -44 49 -39 15 7
-30 41 -40 58 -33 58 3 0 23 -26 46 -57 22 -32 52 -74 67 -93 17 -23 12 -19
-15 10 -23 25 -41 40 -42 34 0 -6 7 -17 14 -24 14 -11 76 -102 76 -111 0 -3
-26 -4 -57 -4 -45 0 -58 3 -58 15 -1 8 -6 24 -13 35 -10 18 -11 18 -12 3 0
-10 5 -18 12 -18 8 0 7 -5 -3 -15 -14 -14 -54 -13 -395 5 -208 12 -389 25
-401 30 -20 9 -23 17 -23 72 0 35 7 74 14 88 53 95 119 244 129 290 12 61 40
103 50 76 4 -11 19 -16 42 -16 l36 0 -29 43 c-38 55 -44 67 -38 67 3 0 19 -20
35 -44 44 -63 62 -80 71 -66 5 9 9 9 14 1 10 -15 28 -14 24 2 -2 6 -34 58 -71
114 -39 57 -67 109 -65 119 2 13 31 -26 87 -114 46 -72 88 -132 93 -132 11 0
11 0 -72 125 -96 144 -107 165 -115 215 -8 52 -6 51 59 -42 26 -38 49 -68 52
-68 3 0 -25 44 -61 97 -47 69 -65 104 -63 122 3 23 6 21 31 -26 14 -28 31 -54
37 -58 5 -3 -2 17 -16 45 -14 28 -24 53 -22 55 2 2 18 -17 35 -43 18 -26 63
-94 102 -152 38 -58 78 -116 89 -130 10 -14 36 -53 57 -87 30 -50 42 -62 61
-61 12 1 20 7 17 13 -26 44 -106 165 -110 165 -5 0 -1 -7 55 -93 24 -38 42
-70 40 -73 -7 -6 -101 146 -102 165 -1 15 -48 89 -138 217 -20 28 -39 61 -43
74 -4 12 -22 39 -40 58 -51 55 -63 69 -75 92 -10 18 -9 21 1 15 9 -6 10 -3 5
10 -5 15 -4 16 9 5 8 -7 13 -16 10 -20z m191 -23 c135 -185 271 -364 284 -374
37 -30 24 -6 -47 87 -42 55 -74 103 -71 106 3 3 14 -8 24 -25 11 -16 52 -74
93 -128 117 -155 126 -167 129 -188 1 -11 3 -25 4 -32 1 -7 6 -11 12 -10 6 1
11 -6 11 -15 0 -10 5 -17 10 -15 12 2 8 16 -9 37 -7 8 -16 22 -20 30 -4 8 4 2
18 -14 26 -31 102 -165 99 -175 -1 -3 3 -11 8 -18 15 -17 -11 -11 -41 10 -14
10 -25 21 -24 25 1 7 -25 51 -36 62 -3 3 -6 12 -8 20 -2 8 -10 22 -18 30 -13
13 -36 45 -136 188 -13 18 -41 56 -63 84 -22 28 -81 108 -130 177 -50 69 -96
126 -102 126 -7 0 -18 7 -25 15 -11 12 -11 12 5 1 22 -17 22 -3 0 21 -9 10
-12 18 -7 18 5 0 23 -20 40 -43z m483 -490 c31 -47 54 -92 55 -111 2 -18 8
-41 15 -52 13 -20 11 -8 -6 33 -4 9 -2 14 3 10 16 -10 56 -96 49 -107 -4 -6 1
-7 11 -3 10 4 15 2 11 -4 -7 -11 18 -40 151 -178 53 -54 101 -98 105 -97 5 1
6 -2 3 -7 -3 -5 15 -34 40 -65 51 -62 52 -93 1 -35 -18 19 -63 70 -101 113
-38 43 -82 91 -98 107 -16 16 -26 29 -23 29 4 0 2 7 -5 15 -7 8 -17 12 -23 8
-6 -4 -8 0 -4 11 4 9 3 15 -2 11 -5 -3 -19 10 -30 28 -11 18 -29 41 -40 51
-11 10 -17 25 -14 34 4 10 2 13 -5 8 -13 -8 -65 87 -54 99 4 5 2 5 -5 1 -8 -4
-19 6 -30 26 -17 33 -19 39 -22 59 0 5 -5 7 -11 4 -5 -3 -11 -1 -11 4 -1 6 -2
17 -3 24 -1 6 -8 11 -15 9 -8 -2 -11 3 -8 13 4 8 2 15 -3 15 -6 0 -10 7 -10
16 0 9 5 12 12 8 7 -4 8 -3 4 5 -6 9 -11 9 -22 0 -8 -6 -15 -8 -15 -3 -1 5 -2
14 -3 21 0 6 -10 22 -21 35 -49 58 -45 59 11 3 33 -33 84 -95 113 -138z m316
-515 c-2 -7 -1 -11 4 -7 9 5 111 -102 111 -117 0 -9 -111 -14 -117 -5 -3 5 -6
19 -8 33 -1 13 -10 33 -20 44 -9 10 -15 25 -12 32 4 9 6 8 6 -3 1 -24 37 -53
47 -38 4 8 3 10 -4 5 -7 -4 -12 -2 -12 5 0 6 -18 31 -40 55 -22 24 -40 48 -40
54 0 6 -4 8 -10 5 -5 -3 -10 1 -10 9 0 9 5 16 11 16 5 0 7 6 3 13 -4 6 16 -10
45 -38 28 -27 49 -56 46 -63z m637 -943 c-13 -5 -70 -12 -125 -16 -91 -7 -96
-8 -52 -14 33 -4 11 -6 -65 -6 -63 0 -157 -4 -207 -8 -90 -7 -93 -6 -93 14 0
16 7 21 28 22 15 1 81 5 147 9 189 10 394 10 367 -1z"/>
<path d="M9490 3989 c0 -11 -5 -17 -10 -14 -22 14 -21 -25 2 -47 13 -13 22
-31 20 -41 -2 -12 3 -20 17 -24 12 -3 21 -9 21 -14 0 -5 11 -9 25 -9 14 0 25
4 25 10 0 5 6 7 13 4 8 -3 20 3 28 12 12 14 9 20 -22 48 -71 61 -112 96 -116
96 -1 0 -3 -9 -3 -21z"/>
<path d="M3890 4190 c0 -5 4 -10 8 -10 5 0 16 -16 25 -35 17 -35 17 -36 -8
-60 -14 -15 -19 -25 -11 -25 21 0 36 -24 26 -40 -6 -10 -2 -17 12 -24 12 -6
23 -17 26 -24 3 -10 -4 -12 -31 -7 -28 6 -38 3 -56 -16 -29 -31 -45 -10 -26
35 13 29 12 32 -7 32 -16 0 -19 -6 -15 -29 2 -15 -1 -31 -7 -35 -6 -3 -42 -6
-81 -5 -38 0 -58 -1 -42 -4 33 -5 36 -23 5 -23 -21 -1 -22 -2 -5 -14 9 -7 15
-20 12 -28 -5 -13 -52 -16 -278 -22 -154 -4 -307 -13 -352 -21 -76 -13 -62
-13 250 -13 182 1 342 4 358 9 15 4 44 5 64 2 75 -12 -1 -22 -192 -24 -104 -1
-284 -5 -400 -9 l-210 -6 140 -4 c137 -4 138 -4 55 -10 -78 -6 -18 -6 485 -1
77 0 196 -2 264 -5 115 -6 124 -6 118 10 -18 45 -19 66 -5 66 12 0 15 21 14
119 -1 67 -5 117 -10 113 -5 -3 -6 6 -3 20 5 18 2 25 -8 25 -8 0 -12 -5 -9
-11 3 -6 -2 -2 -11 9 -13 16 -17 17 -24 6 -7 -11 -10 -9 -16 8 -3 11 -10 21
-15 21 -5 0 -12 9 -15 20 -7 21 -25 28 -25 10z"/>
<path d="M3480 3638 c-135 -4 -265 -12 -289 -18 -35 -8 -46 -8 -53 2 -6 10
-10 10 -16 1 -4 -6 -23 -13 -42 -16 -73 -8 269 -4 615 7 301 11 336 14 215 17
l-145 3 135 6 135 6 -155 0 c-85 0 -265 -4 -400 -8z"/>
<path d="M3500 3588 c-234 -4 -445 -12 -470 -16 -50 -9 -41 -10 365 -15 l210
-3 -205 6 -205 6 176 2 c385 5 719 16 719 24 0 4 -37 7 -82 6 -46 -1 -274 -5
-508 -10z"/>
<path d="M5695 3450 c-40 -3 -65 -8 -58 -13 15 -10 43 -71 95 -207 22 -58 43
-109 48 -114 5 -5 -7 33 -26 84 -19 51 -33 94 -32 96 2 1 38 -57 80 -129 42
-73 82 -131 88 -129 6 1 9 -2 6 -7 -8 -12 4 -42 14 -36 4 3 11 -2 14 -11 3 -8
2 -12 -4 -9 -5 3 -7 0 -4 -8 3 -9 14 -12 30 -9 29 5 29 3 3 55 -16 30 -17 38
-6 29 8 -7 23 -29 32 -48 9 -20 19 -33 22 -31 2 3 -6 25 -19 49 -46 88 -47
110 -1 31 25 -44 57 -83 67 -83 2 0 -14 46 -35 101 -22 56 -38 107 -36 113 2
6 9 -5 16 -25 15 -45 85 -184 75 -149 -3 14 -17 45 -29 70 -12 25 -28 63 -35
85 -16 50 -40 98 -46 92 -3 -2 0 -17 6 -33 14 -36 -2 -20 -18 19 -7 16 -8 26
-2 22 18 -11 11 14 -21 78 -38 75 -13 55 30 -25 17 -31 35 -65 40 -75 6 -10
28 -57 50 -105 22 -49 42 -88 46 -88 3 0 -1 13 -9 28 -8 15 -23 52 -34 82 -33
90 -65 161 -107 236 l-39 71 -65 -1 c-36 0 -97 -2 -136 -6z"/>
<path d="M5924 3440 c0 -11 5 -20 11 -20 6 0 19 -15 28 -32 10 -18 45 -85 78
-148 33 -63 71 -133 84 -155 14 -22 23 -46 20 -53 -3 -7 -1 -11 4 -8 5 3 14
-8 21 -24 7 -17 16 -30 21 -30 7 0 -33 93 -56 130 -5 8 -8 23 -7 32 2 9 -6 35
-17 57 -15 28 -17 41 -9 43 8 3 2 25 -19 66 -18 34 -31 62 -29 62 2 0 22 -29
45 -65 23 -36 46 -65 52 -65 5 0 9 -10 9 -22 1 -29 25 -63 35 -49 3 6 1 11 -5
11 -6 0 -9 4 -5 10 3 5 1 17 -5 27 -5 10 -19 40 -30 66 -11 26 -38 79 -60 118
l-41 69 -62 0 c-56 0 -63 -2 -63 -20z"/>
<path d="M5310 3442 c0 -4 -40 -6 -90 -4 -49 2 -90 1 -90 -2 0 -4 13 -35 29
-69 16 -34 37 -87 46 -117 71 -225 167 -504 184 -536 12 -21 21 -42 21 -45 0
-4 15 -40 34 -81 18 -40 41 -95 51 -123 19 -51 128 -279 144 -299 4 -6 23 -50
41 -98 18 -48 36 -85 41 -82 5 3 9 -1 9 -9 0 -25 42 -117 51 -111 5 3 6 -2 3
-11 -4 -8 -2 -21 3 -28 6 -6 23 -46 38 -87 42 -112 71 -170 80 -162 5 4 6 0 3
-8 -3 -8 10 -42 28 -75 19 -33 53 -100 76 -150 23 -49 66 -136 95 -192 29 -56
53 -104 53 -107 0 -3 -16 -6 -35 -6 -19 0 -35 4 -35 9 0 5 -31 73 -70 152 -38
79 -70 138 -70 131 0 -7 26 -65 59 -130 80 -161 80 -162 39 -162 -33 0 -35 2
-88 113 -29 61 -64 137 -78 167 -13 30 -35 78 -48 107 -13 28 -24 59 -24 67 0
8 -4 18 -10 21 -5 3 -10 13 -10 20 0 12 -83 223 -129 330 -5 11 -19 45 -31 76
-12 31 -30 66 -41 78 -11 12 -17 25 -14 30 3 5 1 12 -5 16 -5 3 -10 17 -10 31
0 14 -4 22 -10 19 -6 -3 -7 1 -4 9 3 9 1 16 -5 16 -6 0 -10 3 -9 8 3 14 -14
62 -23 62 -5 0 -6 6 -3 14 3 8 0 17 -7 22 -8 5 -10 3 -4 -6 6 -9 4 -11 -4 -6
-7 5 -10 14 -7 22 3 8 1 14 -5 14 -6 0 -8 7 -5 16 3 8 2 12 -4 9 -8 -5 -35 45
-105 199 -14 30 -25 61 -25 68 0 7 -12 36 -25 63 -29 59 -33 86 -5 35 11 -19
20 -28 20 -20 1 16 29 -27 29 -45 0 -5 -6 1 -14 15 -23 40 -17 7 9 -51 13 -30
40 -94 61 -144 21 -49 42 -94 47 -100 5 -5 2 7 -7 28 -36 86 -54 137 -50 137
2 0 14 -23 26 -50 12 -28 24 -49 26 -46 2 2 -7 31 -21 65 -28 64 -32 86 -16
76 6 -3 10 -2 10 3 0 6 -7 12 -15 16 -8 3 -15 14 -15 24 0 11 -11 44 -25 73
-14 30 -22 43 -19 29 4 -14 13 -37 20 -52 16 -31 18 -46 5 -33 -10 10 -81 182
-81 194 1 3 7 -5 16 -19 19 -32 20 -35 -56 215 -33 110 -62 212 -63 227 -1 14
-5 24 -9 21 -5 -2 -8 5 -8 17 0 11 -4 28 -10 38 -5 9 -23 49 -39 87 l-30 70
-98 -1 c-163 -3 -170 -3 -154 -13 12 -8 9 -11 -11 -16 l-26 -7 18 -31 c19 -34
54 -154 65 -227 4 -25 13 -67 21 -94 17 -59 16 -56 4 -56 -5 0 -10 13 -10 29
0 17 -4 33 -10 36 -5 3 -10 20 -10 37 0 48 -100 338 -117 338 -11 0 -11 -4 1
-22 8 -13 26 -67 41 -121 14 -54 30 -108 35 -120 22 -52 63 -236 65 -298 2
-37 6 -73 10 -80 5 -7 9 -26 11 -43 1 -17 8 -45 14 -61 11 -28 13 -28 20 -10
7 16 9 17 9 3 1 -9 4 -25 7 -35 5 -15 4 -16 -6 -3 -9 13 -11 12 -6 -5 26 -103
45 -150 46 -115 1 8 6 4 11 -10 7 -17 7 -26 -1 -28 -5 -2 -7 -8 -4 -14 4 -6
10 -5 16 3 8 11 9 10 4 -3 -6 -20 12 -78 25 -78 5 0 8 -8 6 -17 -2 -16 41
-142 78 -228 7 -16 18 -49 24 -73 7 -23 27 -77 45 -120 31 -73 76 -224 96
-322 7 -36 8 -29 4 39 -3 46 -9 91 -14 100 -19 36 -84 216 -157 431 -41 124
-88 257 -103 295 -15 39 -37 113 -49 165 -13 52 -32 128 -43 168 -14 53 -17
76 -9 86 7 8 7 22 1 42 -5 16 -19 74 -31 129 -22 106 -63 268 -74 298 -4 9 -3
17 3 17 6 0 16 -22 23 -50 7 -27 16 -47 20 -44 4 2 5 -6 2 -18 -3 -16 -2 -19
5 -10 6 10 24 -22 62 -110 29 -68 61 -139 71 -158 11 -19 19 -42 19 -50 0 -8
7 -35 15 -60 13 -38 15 -40 10 -11 -3 19 -3 33 -1 30 15 -17 96 -240 97 -268
1 -20 5 -47 10 -61 6 -18 7 -7 4 35 -4 55 -4 58 10 40 9 -11 13 -25 11 -31 -3
-7 2 -18 9 -24 8 -7 13 -16 10 -20 -8 -12 6 -41 16 -34 5 3 6 -3 2 -12 -5 -13
-3 -15 7 -9 8 5 11 4 6 -3 -3 -6 5 -36 18 -67 14 -31 28 -71 32 -90 3 -19 10
-33 14 -30 5 3 12 -5 15 -17 4 -13 36 -82 71 -154 35 -72 64 -134 64 -137 0
-4 22 -53 49 -109 70 -148 81 -176 81 -204 0 -16 4 -23 11 -18 8 4 9 -1 4 -16
-5 -16 -4 -20 5 -15 9 5 10 1 5 -16 -4 -14 -3 -19 2 -12 6 8 17 -9 32 -50 13
-34 42 -99 63 -145 21 -46 48 -106 59 -135 11 -28 27 -63 34 -77 15 -26 71
-149 86 -187 7 -20 5 -23 -14 -23 -12 0 -94 -3 -182 -6 l-160 -6 -29 71 c-16
40 -30 70 -32 68 -2 -2 7 -32 21 -66 14 -34 23 -66 20 -71 -3 -4 -39 -8 -80
-7 -41 1 -74 -2 -72 -7 3 -8 253 -9 266 -2 3 2 83 7 176 11 94 4 202 8 240 10
96 5 221 -6 180 -16 -20 -4 -6 -7 47 -8 89 -1 108 4 108 30 0 18 -8 19 -109
15 l-109 -4 -7 25 c-3 14 -28 75 -56 136 -34 74 -49 121 -47 144 1 19 -3 37
-8 41 -22 14 -102 179 -164 339 -24 61 -47 110 -51 107 -4 -2 -11 1 -15 7 -4
8 -3 9 4 5 20 -12 13 11 -28 100 -22 47 -40 88 -40 90 0 2 -29 66 -64 142 -35
76 -76 174 -92 217 -15 44 -40 100 -56 124 -15 24 -25 48 -22 53 7 11 -15 68
-26 68 -11 0 -69 135 -84 198 -25 102 -46 176 -62 220 -10 23 -15 45 -12 47 3
3 17 -29 31 -72 84 -253 168 -463 186 -463 5 0 12 -7 15 -16 3 -8 2 -12 -4 -9
-5 3 -7 -1 -4 -9 3 -9 11 -14 17 -13 7 1 12 -8 11 -20 0 -12 4 -21 10 -20 6 1
11 -8 10 -20 0 -12 3 -20 7 -18 3 3 12 -10 20 -28 7 -17 54 -119 106 -226 51
-106 93 -197 93 -201 0 -4 31 -77 68 -161 38 -85 79 -181 92 -214 13 -33 43
-90 67 -127 54 -83 58 -95 44 -112 -8 -10 -4 -25 15 -62 45 -85 51 -97 88
-175 30 -63 40 -76 59 -75 17 1 21 7 19 26 -1 14 -11 37 -22 52 -11 15 -20 33
-20 41 0 7 -11 28 -25 47 -14 19 -25 39 -25 44 0 6 -33 70 -73 141 -86 157
-87 159 -128 260 -18 44 -37 83 -43 87 -6 4 -8 8 -4 8 4 0 2 13 -3 30 -6 16
-15 27 -20 24 -5 -3 -6 1 -3 9 7 20 -36 132 -46 117 -9 -14 -52 91 -46 112 1
7 1 9 -2 4 -4 -8 -91 159 -92 178 0 5 8 2 18 -5 15 -13 16 -12 3 3 -7 10 -17
15 -22 12 -5 -3 -9 6 -9 20 0 13 -7 31 -15 39 -8 8 -12 17 -9 20 3 2 -6 29
-20 58 -14 30 -26 50 -26 44 -1 -11 -29 35 -30 48 0 5 4 5 10 2 6 -3 7 1 3 10
-4 11 -8 13 -13 6 -3 -6 -13 4 -23 24 -21 44 -22 60 -1 22 24 -44 27 -26 4 24
-11 24 -20 37 -20 29 -1 -29 -20 18 -24 58 -2 21 -9 47 -15 58 -11 17 -12 17
-7 1 9 -28 -4 -41 -20 -20 -7 10 -13 34 -13 53 0 34 1 34 11 10 16 -39 20 -8
4 36 -10 27 -15 32 -15 17 -1 -12 -6 -25 -12 -29 -7 -4 -9 0 -5 12 5 19 -16
98 -25 90 -2 -2 -5 5 -5 17 -1 12 -6 44 -12 72 -7 32 -7 56 -1 68 7 13 5 34
-7 70 -22 67 -25 72 -36 56 -8 -11 -9 -10 -4 3 5 18 -30 129 -59 186 -9 18
-15 36 -12 39 4 3 15 -14 26 -38 18 -38 139 -348 170 -434 l11 -30 -6 33 c-3
19 -29 93 -56 165 -28 73 -61 159 -73 192 -12 33 -32 80 -44 103 -12 23 -18
42 -14 42 10 0 -19 20 -29 20 -5 0 -8 -4 -8 -8z m125 -1157 c19 -44 47 -107
63 -140 16 -33 33 -71 37 -85 14 -46 78 -175 95 -190 9 -8 49 -95 89 -194 72
-179 88 -243 32 -125 -17 35 -28 53 -24 39 3 -14 6 -33 5 -42 0 -9 6 -19 14
-22 8 -3 14 -14 14 -25 0 -25 25 -73 34 -64 4 4 4 -1 0 -11 -5 -13 -4 -17 4
-12 8 5 10 1 5 -10 -4 -12 -3 -15 5 -10 15 9 43 -58 40 -93 -2 -14 2 -26 9
-26 16 0 44 -40 82 -120 19 -38 40 -82 48 -97 14 -28 14 -28 -23 -28 -21 0
-35 3 -31 6 3 4 -5 27 -18 53 -14 25 -25 50 -25 54 0 5 -18 45 -40 89 -22 45
-40 88 -40 97 0 14 -2 14 -11 1 -8 -12 -9 -10 -4 7 6 23 -38 123 -54 123 -5 0
-8 6 -8 13 3 29 -16 107 -26 107 -6 0 -7 3 -4 7 4 3 1 16 -7 28 -14 21 -87
220 -86 233 1 4 12 -13 25 -38 13 -25 24 -42 25 -39 1 15 -36 86 -55 106 -21
24 -70 115 -105 200 -12 29 -26 50 -31 47 -5 -3 -6 1 -4 9 3 7 -17 60 -45 118
-28 57 -48 93 -45 79 5 -21 4 -22 -5 -7 -6 9 -8 22 -5 27 9 15 -5 51 -17 44
-7 -4 -8 -2 -4 5 9 14 -24 112 -36 105 -4 -3 -5 2 -2 10 3 8 1 23 -6 33 -9 15
-10 14 -4 -7 3 -14 3 -22 -1 -18 -4 4 -9 27 -10 50 -2 40 2 33 57 -82 33 -69
75 -161 93 -205z"/>
<path d="M5405 3440 c-3 -5 -1 -18 5 -27 9 -15 10 -14 4 7 -11 41 7 15 32 -47
48 -117 85 -233 78 -244 -5 -8 -3 -9 6 -4 10 6 12 1 8 -18 -3 -15 -2 -24 3
-22 4 3 13 -12 20 -32 33 -102 158 -387 166 -379 3 2 -3 18 -11 34 -9 17 -13
37 -10 45 3 8 -20 66 -51 129 -30 63 -55 119 -55 125 0 5 -13 50 -29 98 -17
49 -27 93 -24 98 8 12 64 -134 58 -151 -3 -7 -1 -11 4 -8 12 8 124 -262 124
-297 0 -16 3 -24 6 -18 4 6 20 -20 35 -57 32 -74 42 -89 53 -78 4 4 2 10 -4
14 -6 4 -18 25 -26 47 -8 22 -31 77 -51 122 -21 45 -41 109 -47 142 -5 32 -23
92 -40 133 -16 40 -39 97 -50 126 -12 29 -23 51 -26 48 -6 -6 17 -71 54 -153
12 -28 23 -58 23 -65 -1 -44 -82 163 -85 217 -2 22 -19 79 -38 128 -20 48 -32
87 -28 87 9 0 51 -83 97 -190 20 -47 39 -87 44 -90 15 -10 49 -87 64 -147 14
-55 54 -156 42 -108 -21 87 -56 185 -96 271 -27 55 -52 113 -56 130 -4 16 -20
55 -36 87 -25 50 -32 57 -58 57 -26 0 -29 -3 -21 -17 5 -10 17 -47 26 -83 10
-36 22 -78 28 -93 7 -21 7 -31 -2 -40 -10 -9 -12 -8 -9 4 1 9 -17 65 -42 123
-32 75 -50 106 -62 106 -9 0 -20 -4 -23 -10z"/>
<path d="M5584 3408 c13 -24 27 -54 31 -68 4 -14 27 -67 51 -117 24 -51 44
-95 44 -97 0 -2 8 -21 17 -42 9 -22 24 -59 33 -84 12 -32 22 -46 38 -48 25 -4
27 5 7 32 -8 11 -15 28 -15 37 0 30 -57 162 -64 148 -3 -8 -3 -4 -1 7 10 41
-90 274 -117 274 -10 0 8 -37 28 -60 13 -15 77 -180 70 -180 -3 0 -31 54 -63
120 -32 66 -64 120 -71 120 -9 0 -5 -14 12 -42z"/>
<path d="M4367 3422 c-35 -3 -38 -6 -32 -25 17 -57 54 -219 65 -282 35 -204
74 -384 110 -505 22 -74 48 -169 58 -210 11 -41 34 -118 52 -170 55 -155 66
-189 109 -325 23 -72 41 -138 41 -147 0 -9 5 -20 10 -23 6 -3 10 -16 10 -27 0
-31 69 -256 92 -302 11 -22 39 -96 63 -165 23 -69 51 -147 60 -172 20 -51 15
-79 -13 -79 -20 0 -29 21 -108 250 -18 52 -33 90 -33 84 -1 -13 38 -141 73
-239 32 -90 32 -93 -6 -91 -31 1 -34 5 -51 61 -10 33 -28 83 -39 110 -28 66
-82 262 -103 370 -10 51 12 8 41 -80 26 -80 43 -119 44 -100 0 6 -14 51 -31
100 -41 119 -88 293 -89 330 0 37 -15 64 -22 43 -3 -7 7 -63 23 -123 15 -61
28 -116 28 -124 2 -32 -10 1 -38 109 -16 63 -33 124 -37 134 -5 14 -4 17 4 12
24 -15 22 22 -7 104 -17 47 -30 75 -31 62 0 -13 6 -35 14 -50 7 -15 16 -43 20
-62 5 -32 5 -33 -5 -10 -34 78 -42 100 -54 155 -8 33 -18 74 -24 90 -6 17 -16
49 -22 73 -5 23 -14 40 -19 37 -6 -3 -7 1 -4 9 3 8 -2 38 -11 66 -9 28 -15 53
-13 55 5 5 46 -109 87 -240 17 -55 30 -89 28 -75 -3 14 -17 66 -32 115 -61
197 -95 319 -90 323 2 3 7 -1 10 -9 20 -54 105 -338 120 -399 10 -41 32 -118
50 -170 18 -52 45 -146 61 -208 24 -102 72 -250 73 -228 1 4 -12 52 -28 105
-16 53 -35 121 -41 151 -7 30 -30 107 -50 170 -21 63 -41 133 -45 155 -4 22
-13 58 -20 80 -7 22 -19 63 -28 90 -64 210 -90 285 -98 285 -5 0 -9 15 -9 33
0 17 -11 66 -24 107 -13 41 -38 161 -55 265 -53 321 -60 358 -82 431 l-21 72
-102 -2 c-170 -4 -170 -4 -158 -19 6 -7 15 -42 20 -77 5 -36 10 -54 11 -40 1
16 11 -3 25 -50 13 -41 36 -115 52 -165 15 -49 29 -106 31 -125 2 -19 10 -40
18 -46 8 -6 15 -21 15 -33 0 -12 4 -20 9 -17 5 4 7 -2 5 -11 -3 -10 4 -43 15
-73 11 -30 20 -48 20 -39 1 9 -6 36 -14 59 -20 57 -13 61 14 9 18 -34 20 -47
12 -72 -14 -37 -14 -174 -2 -182 6 -3 8 17 6 50 -3 30 -1 55 4 55 9 0 16 -21
27 -85 2 -16 16 -67 29 -111 14 -45 25 -99 25 -120 0 -23 4 -34 8 -26 5 7 23
-35 46 -110 20 -68 44 -138 52 -156 8 -18 13 -36 10 -41 -3 -5 -1 -35 6 -67 8
-38 14 -52 18 -40 7 21 50 -113 57 -181 3 -24 9 -43 15 -43 5 0 7 -4 3 -9 -3
-6 -2 -29 1 -53 5 -31 9 -37 14 -23 9 25 50 -125 43 -157 -3 -17 -2 -19 5 -9
7 9 15 -7 31 -60 12 -41 39 -130 61 -199 51 -165 51 -162 18 -165 -25 -3 -29
1 -42 43 l-14 47 5 -41 c3 -23 1 -44 -3 -47 -5 -2 -47 -8 -94 -12 -47 -3 -87
-9 -90 -12 -8 -8 564 11 665 22 17 2 51 4 78 4 26 1 47 5 47 10 0 5 -24 8 -54
7 l-54 -1 -47 130 c-26 72 -67 177 -92 235 -57 134 -66 160 -109 327 -55 217
-64 244 -75 237 -7 -4 -9 1 -5 14 9 27 -15 153 -24 128 -8 -24 -44 58 -37 85
3 12 -2 39 -12 62 -10 23 -32 95 -51 159 -18 65 -36 115 -41 113 -4 -3 -11 0
-15 6 -4 8 -3 9 4 5 19 -11 14 25 -8 67 -25 47 -25 56 0 26 17 -21 17 -17 -5
40 -30 79 -48 172 -41 214 6 30 5 31 -5 7 -6 -14 -8 -42 -5 -63 4 -25 3 -36
-4 -32 -5 3 -10 1 -10 -4 0 -6 4 -11 9 -11 8 0 24 -90 17 -97 -6 -6 -27 84
-32 137 -8 94 -9 206 -1 235 7 24 6 27 -3 15 -10 -12 -11 -11 -6 10 6 27 -43
240 -76 328 -19 52 -22 55 -31 34 -7 -15 -7 -30 2 -48 6 -15 10 -29 7 -31 -2
-3 -13 18 -23 46 -15 44 -21 51 -43 48 -14 -1 -42 -3 -63 -5z m287 -921 c3 8
3 3 0 -10 -5 -17 -3 -21 6 -16 8 5 11 4 7 -2 -8 -13 51 -246 92 -363 43 -125
37 -88 -10 61 -22 70 -39 134 -37 140 5 14 91 -239 128 -378 16 -56 31 -106
34 -111 3 -6 3 -18 -1 -28 -4 -11 -19 26 -44 107 -21 68 -38 118 -38 111 -1
-7 19 -81 43 -165 24 -83 59 -208 77 -277 35 -135 58 -195 74 -197 9 -1 85
-198 84 -218 -1 -14 -14 18 -50 118 -25 70 -35 87 -47 82 -9 -3 -14 -3 -10 0
3 4 -7 34 -23 68 -16 34 -49 141 -74 237 -24 96 -54 207 -65 245 -12 39 -30
104 -41 145 -11 41 -24 82 -29 91 -11 19 -51 163 -56 199 -2 14 -13 57 -25 95
-28 93 -32 116 -15 81 9 -21 15 -25 20 -15z m-220 -126 c24 -77 60 -196 80
-265 54 -184 78 -264 84 -275 3 -7 1 -7 -5 0 -13 12 -73 155 -73 173 0 8 -22
82 -50 165 -57 177 -104 364 -85 346 2 -3 24 -68 49 -144z"/>
<path d="M4625 3410 c3 -11 8 -32 11 -47 3 -15 7 -30 10 -34 4 -7 24 -100 95
-437 11 -57 167 -522 178 -536 17 -20 53 -120 72 -196 15 -59 17 -65 13 -26
-4 36 -2 46 6 41 9 -5 10 -1 5 16 -10 31 -22 60 -34 79 -22 35 -63 135 -68
166 -3 18 -10 31 -15 28 -9 -6 -7 6 10 56 3 10 2 12 -6 5 -5 -5 -12 -19 -14
-30 -3 -16 -38 80 -75 205 -3 8 4 5 15 -8 13 -14 22 -18 24 -10 3 7 10 -9 17
-35 6 -27 8 -53 5 -59 -5 -7 -2 -8 6 -3 10 6 11 1 6 -21 -4 -19 -3 -24 3 -15
7 11 12 9 24 -10 8 -13 20 -41 27 -62 7 -21 14 -37 16 -35 5 5 -54 185 -72
220 -22 43 -52 174 -58 253 -2 39 -13 99 -24 135 -11 36 -25 87 -32 113 -7 26
-15 46 -17 43 -4 -3 32 -151 53 -218 3 -10 2 -18 -3 -18 -15 0 -56 164 -59
236 -1 40 -7 80 -12 90 -5 11 -13 39 -17 64 -4 25 -11 52 -16 60 -6 10 -7 5
-4 -15 3 -16 15 -91 26 -165 12 -74 31 -171 44 -215 31 -108 85 -312 85 -321
0 -5 -5 -3 -11 3 -17 17 -78 197 -95 278 -35 175 -44 222 -44 245 0 20 -2 22
-11 10 -8 -11 -9 -8 -5 15 7 36 -34 169 -53 173 -8 2 -10 -4 -6 -18z"/>
<path d="M3677 3388 c-4 -13 -4 -41 -2 -63 4 -34 2 -31 -12 18 l-17 57 -64 0
-64 0 6 -27 c3 -16 9 -49 12 -75 7 -46 8 -48 40 -48 23 0 34 5 37 18 4 16 5
16 6 0 1 -13 10 -18 31 -18 22 0 30 5 31 18 0 14 2 14 9 -3 l9 -20 1 20 1 20
9 -20 c14 -32 11 -2 -6 72 -18 79 -19 81 -27 51z"/>
<path d="M3888 3262 c1 -81 7 -183 12 -227 6 -44 22 -165 35 -268 14 -103 23
-200 20 -215 -5 -23 -4 -24 5 -7 8 16 9 12 6 -19 -5 -33 -3 -36 8 -21 11 16
14 10 26 -44 7 -34 15 -59 17 -57 5 4 -14 107 -25 136 -3 8 -4 18 -4 23 1 4
-6 40 -17 79 -13 53 -19 111 -20 215 0 79 -5 162 -11 186 -5 23 -11 56 -14 72
-2 17 -2 3 0 -30 2 -33 7 -80 10 -105 5 -31 3 -42 -4 -35 -11 11 -33 167 -31
225 1 33 2 33 10 10 6 -17 7 -7 3 30 -4 30 -9 85 -13 122 -11 111 -16 85 -13
-70z"/>
<path d="M3971 3378 c5 -18 13 -67 19 -108 5 -41 16 -120 24 -175 8 -55 17
-125 18 -157 2 -31 7 -54 11 -51 5 3 4 -4 -2 -15 -15 -29 -14 -139 2 -146 8
-4 9 -8 1 -11 -11 -6 -9 -19 12 -110 6 -26 8 -27 16 -10 5 13 7 6 3 -23 -7
-53 3 -100 17 -80 7 9 8 2 4 -22 -5 -27 -3 -31 5 -20 8 12 10 10 5 -10 -3 -14
-1 -41 4 -60 5 -19 19 -75 31 -125 20 -86 39 -130 39 -91 0 10 -18 97 -39 194
-35 156 -59 305 -59 367 0 11 -4 50 -9 88 -8 56 -7 67 5 67 10 0 12 6 7 23 -5
12 -9 40 -10 62 -8 177 -29 344 -52 403 -20 53 -28 50 -10 -4 20 -56 36 -180
41 -314 3 -92 2 -105 -5 -65 -5 28 -10 66 -9 86 0 20 -13 101 -30 180 -16 79
-30 147 -30 151 0 5 -4 8 -9 8 -6 0 -6 -12 0 -32z"/>
<path d="M3309 3392 l-87 -3 10 -42 c5 -23 7 -50 4 -59 -2 -10 0 -16 5 -12 5
3 9 -2 9 -10 0 -14 17 -16 105 -16 102 0 105 1 105 23 -1 26 -16 106 -21 111
-10 9 -51 11 -130 8z"/>
<path d="M3571 2891 c-17 -11 -9 -128 19 -301 11 -63 22 -145 26 -183 6 -55
10 -67 23 -63 9 3 28 8 43 12 26 6 27 8 21 53 -3 25 -10 47 -15 49 -4 2 -5 14
-2 28 3 13 -1 45 -9 71 -31 97 -37 133 -37 237 0 64 -4 106 -10 106 -5 0 -11
-17 -11 -37 l-2 -38 -6 34 c-6 37 -18 46 -40 32z"/>
<path d="M3664 2798 c3 -57 10 -128 15 -158 18 -99 20 -115 26 -154 5 -30 9
-36 16 -25 7 9 8 1 4 -26 -4 -31 -3 -36 5 -20 8 15 9 11 4 -20 -3 -22 -3 -37
1 -33 4 3 16 -3 27 -14 11 -11 22 -18 24 -15 2 2 -3 49 -12 103 -9 54 -16 107
-17 116 -1 9 -5 14 -9 12 -4 -3 -8 3 -8 13 0 15 -2 16 -10 3 -7 -11 -9 -8 -9
15 0 17 -4 55 -9 85 -5 30 -6 60 -3 65 11 15 13 77 2 71 -7 -5 -21 37 -21 65
0 4 15 10 33 12 24 3 20 4 -16 5 l-49 2 6 -102z"/>
<path d="M3324 2868 c4 -13 9 -30 11 -38 2 -8 13 -34 25 -58 21 -43 21 -102
-1 -102 -5 0 -9 -14 -9 -31 0 -16 4 -28 9 -24 9 5 14 -17 26 -140 4 -33 9 -80
11 -105 3 -25 6 -55 6 -68 0 -20 4 -23 27 -17 14 4 27 7 28 9 1 1 -1 37 -4 81
-4 57 -9 74 -15 60 -7 -16 -8 -16 -3 5 2 14 5 41 6 60 1 35 1 35 14 -12 7 -25
15 -70 19 -100 7 -57 20 -87 33 -75 4 4 0 47 -9 95 -19 97 -33 272 -18 212 5
-19 16 -93 26 -165 9 -71 18 -132 20 -134 2 -2 4 13 5 35 1 40 3 39 14 -10 10
-45 13 -26 5 33 -4 30 -3 73 1 95 4 23 3 57 -2 76 -8 32 -8 31 -3 -10 3 -30 2
-42 -5 -35 -5 6 -20 80 -32 165 -31 222 -31 220 -38 216 -3 -2 -5 -38 -3 -80
2 -42 7 -74 12 -71 9 6 17 -35 24 -125 4 -54 4 -58 -4 -25 -5 22 -9 55 -9 73
-1 33 -20 46 -22 15 0 -10 -5 -4 -10 12 -5 17 -8 50 -7 75 2 62 -11 132 -25
127 -15 -5 -22 -87 -8 -87 6 0 10 -15 10 -32 -2 -31 -2 -31 -6 -5 -2 15 -9 27
-14 27 -5 0 -9 12 -10 28 -1 15 -5 38 -10 52 -6 19 -8 13 -6 -27 1 -28 -1 -49
-5 -46 -5 2 -8 17 -8 33 0 42 -10 60 -32 60 -16 0 -19 -4 -14 -22z"/>
<path d="M4234 1854 c11 -38 35 -232 40 -336 5 -89 15 -139 61 -300 31 -106
56 -206 58 -223 l2 -30 -75 -2 c-41 -1 -115 -6 -165 -11 -49 -5 -93 -8 -96 -6
-4 2 -9 23 -13 46 -9 58 -40 185 -86 353 -26 93 -45 191 -57 291 -16 146 -18
150 -39 146 -21 -4 -25 -16 -12 -37 3 -5 13 -59 22 -120 9 -60 23 -144 31
-185 16 -81 18 -107 9 -97 -10 9 -54 198 -59 247 -5 65 -26 182 -32 177 -4 -4
14 -145 39 -307 6 -41 19 -94 29 -117 14 -32 15 -43 5 -43 -22 0 -55 129 -76
300 -12 90 -22 165 -23 166 -1 0 -16 -3 -33 -7 l-30 -9 8 -68 c12 -106 43
-264 76 -402 38 -152 59 -251 68 -307 l7 -43 -49 -1 c-93 -1 -118 -30 -33 -39
28 -3 72 -3 97 1 39 5 33 7 -37 8 -93 1 -104 10 -20 15 30 2 74 7 99 10 25 3
92 8 150 10 285 13 376 19 390 27 10 6 1 8 -28 9 -51 0 -46 -9 -101 199 -22
80 -47 171 -56 201 -11 37 -17 102 -20 200 -3 144 -25 282 -47 296 -6 4 -8 -1
-4 -12z"/>
<path d="M3565 1712 c-50 -17 -50 -17 -48 -57 1 -22 3 -60 3 -85 1 -27 4 -39
9 -31 5 8 11 -9 15 -45 16 -140 97 -554 109 -554 9 0 -2 128 -14 152 -5 9 -14
60 -19 113 -12 117 -19 147 -32 139 -6 -4 -8 1 -4 12 3 11 7 41 7 67 1 26 6
42 10 36 4 -7 5 -17 3 -24 -6 -15 31 -167 39 -159 3 3 9 -6 13 -21 4 -18 2
-30 -6 -35 -10 -6 -7 -29 13 -106 18 -67 25 -84 23 -54 -7 65 9 29 24 -57 7
-40 17 -70 22 -67 12 8 1 113 -19 174 -15 51 -35 189 -49 340 -7 85 9 60 26
-40 7 -41 19 -86 27 -100 8 -14 12 -17 8 -6 -3 10 -12 55 -20 100 -8 44 -19
96 -24 113 -5 18 -13 73 -17 123 -3 49 -11 90 -16 90 -6 0 -8 -14 -5 -32 4
-18 8 -67 11 -108 7 -95 -9 -40 -19 68 -4 39 -10 72 -14 71 -3 -1 -28 -8 -56
-17z"/>
<path d="M5300 969 c-91 -4 -293 -13 -449 -19 -156 -7 -294 -16 -305 -20 -16
-7 -8 -9 31 -9 70 -1 474 17 658 29 83 5 211 13 285 16 74 4 137 8 139 10 6 6
-166 2 -359 -7z"/>
<path d="M1200 919 c-36 -27 -82 -54 -102 -59 -29 -8 -50 -28 -101 -93 -36
-46 -61 -86 -57 -92 4 -5 -3 -34 -17 -63 -13 -30 -23 -56 -21 -58 9 -8 65 56
101 115 23 39 55 74 84 94 71 49 107 82 123 114 8 15 25 43 38 61 14 17 23 32
21 31 -2 0 -33 -23 -69 -50z"/>
<path d="M5550 907 c-3 -3 -140 -10 -305 -17 -165 -7 -311 -14 -325 -15 -14
-1 -65 -4 -115 -5 -65 -2 -82 -5 -60 -10 32 -8 -86 -14 -315 -16 -278 -1
-1538 -47 -1648 -60 -129 -14 -17 -14 354 0 220 9 577 20 794 26 439 12 790
25 1105 39 116 6 296 13 400 16 105 4 212 8 239 10 50 4 74 14 40 17 -10 0 4
4 31 8 39 5 28 7 -50 7 -78 0 -90 -2 -55 -8 l45 -7 -45 3 c-25 1 -54 6 -65 9
-11 4 -23 5 -25 3z"/>
<path d="M1850 829 c-74 -4 -205 -9 -290 -13 -126 -6 -157 -10 -167 -24 -27
-34 -16 -37 95 -34 59 2 114 8 122 13 10 6 4 8 -22 9 -21 0 -38 4 -38 9 0 5
66 12 148 16 81 3 237 12 347 20 190 13 193 13 70 12 -71 -1 -191 -5 -265 -8z"/>
<path d="M4650 455 c-129 -7 -289 -18 -355 -24 -66 -6 -183 -16 -259 -22 -76
-6 -148 -15 -160 -19 -28 -12 -14 -12 79 0 96 12 521 37 839 50 128 6 234 14
240 20 12 12 -69 11 -384 -5z"/>
<path d="M4926 331 c-10 -15 -154 -23 -413 -23 -139 1 -253 -3 -253 -7 0 -5
-19 -7 -42 -6 -50 3 -407 -12 -583 -25 -161 -11 432 -2 720 11 116 5 298 12
405 15 182 6 228 13 214 35 -7 12 -41 12 -48 0z"/>
</g>
</svg>
